<?xml version="1.0" encoding="ISO8859-1"?>
<svg xmlns="http://www.w3.org/2000/svg" xmlns:xlink="http://www.w3.org/1999/xlink" width="288px" height="252px" viewBox="0 0 288 252" version="1.1" id="Fig:dens">
  <metadata xmlns:gridsvg="http://www.stat.auckland.ac.nz/~paul/R/gridSVG/">
    <gridsvg:generator name="gridSVG" version="1.7-2" time="2020-05-03 16:17:42"/>
    <gridsvg:argument name="name" value="./results/QCDir.Raw/dens.svg"/>
    <gridsvg:argument name="exportCoords" value="none"/>
    <gridsvg:argument name="exportMappings" value="none"/>
    <gridsvg:argument name="exportJS" value="none"/>
    <gridsvg:argument name="res" value="72"/>
    <gridsvg:argument name="prefix" value="Fig:dens"/>
    <gridsvg:argument name="addClasses" value="FALSE"/>
    <gridsvg:argument name="indent" value="TRUE"/>
    <gridsvg:argument name="htmlWrapper" value="FALSE"/>
    <gridsvg:argument name="usePaths" value="none"/>
    <gridsvg:argument name="uniqueNames" value="TRUE"/>
    <gridsvg:separator name="id.sep" value="."/>
    <gridsvg:separator name="gPath.sep" value="::"/>
    <gridsvg:separator name="vpPath.sep" value="::"/>
  </metadata>
  <g transform="translate(0, 252) scale(1, -1)">
    <g id="Fig:densgridSVG" fill="none" stroke="rgb(0,0,0)" stroke-dasharray="none" stroke-width="0.75" font-size="12" font-family="Helvetica, Arial, FreeSans, Liberation Sans, Nimbus Sans L, sans-serif" opacity="1" stroke-linecap="round" stroke-linejoin="round" stroke-miterlimit="10" stroke-opacity="1" fill-opacity="0" font-weight="normal" font-style="normal">
      <g id="Fig:densplot_01.background.1">
        <rect id="Fig:densplot_01.background.1.1" x="0" y="0" width="288" height="252" transform="" fill="none" stroke="none" stroke-opacity="0" fill-opacity="0"/>
      </g>
      <g id="Fig:densplot_01.toplevel.vp.1" font-size="12">
        <g id="Fig:densplot_01.ylab.vp.1">
          <g id="Fig:densplot_01.ylab.1">
            <g id="Fig:densplot_01.ylab.1.1" transform="translate(10.31, 138.09)" stroke-width="0.1">
              <g id="Fig:densplot_01.ylab.1.1.scale" transform="scale(1, -1)">
                <text x="0" y="0" id="Fig:densplot_01.ylab.1.1.text" transform="rotate(-90)" text-anchor="middle" opacity="1" stroke="rgb(0,0,0)" fill="rgb(0,0,0)" stroke-opacity="1" fill-opacity="1" font-size="12" font-weight="normal" font-style="normal">
                  <tspan id="Fig:densplot_01.ylab.1.1.tspan.1" dy="4.31" x="0">Density</tspan>
                </text>
              </g>
            </g>
          </g>
        </g>
        <g id="Fig:densplot_01.figure.vp.1"/>
        <defs>
          <clipPath id="Fig:densplot_01.panel.1.1.vp.1.clipPath">
            <rect x="44.8" y="42.19" width="231.2" height="191.81" fill="none" stroke="none"/>
          </clipPath>
        </defs>
        <g id="Fig:densplot_01.panel.1.1.vp.1" clip-path="url(#Fig:densplot_01.panel.1.1.vp.1.clipPath)"/>
        <g id="Fig:densplot_01.strip.1.1.off.vp.1"/>
        <g id="Fig:densplot_01.strip.left.1.1.off.vp.1">
          <g id="Fig:densplot_01.ticks.left.panel.1.1.1">
            <polyline id="Fig:densplot_01.ticks.left.panel.1.1.1.1" points="44.8,53.97 39.13,53.97" stroke="rgb(0,0,0)" opacity="1" stroke-dasharray="none" stroke-width="0.75" stroke-opacity="1" fill="none"/>
            <polyline id="Fig:densplot_01.ticks.left.panel.1.1.1.2" points="44.8,94.94 39.13,94.94" stroke="rgb(0,0,0)" opacity="1" stroke-dasharray="none" stroke-width="0.75" stroke-opacity="1" fill="none"/>
            <polyline id="Fig:densplot_01.ticks.left.panel.1.1.1.3" points="44.8,135.91 39.13,135.91" stroke="rgb(0,0,0)" opacity="1" stroke-dasharray="none" stroke-width="0.75" stroke-opacity="1" fill="none"/>
            <polyline id="Fig:densplot_01.ticks.left.panel.1.1.1.4" points="44.8,176.89 39.13,176.89" stroke="rgb(0,0,0)" opacity="1" stroke-dasharray="none" stroke-width="0.75" stroke-opacity="1" fill="none"/>
            <polyline id="Fig:densplot_01.ticks.left.panel.1.1.1.5" points="44.8,217.86 39.13,217.86" stroke="rgb(0,0,0)" opacity="1" stroke-dasharray="none" stroke-width="0.75" stroke-opacity="1" fill="none"/>
          </g>
          <g id="Fig:densplot_01.ticklabels.left.panel.1.1.1">
            <g id="Fig:densplot_01.ticklabels.left.panel.1.1.1.1" transform="translate(33.47, 53.97)" stroke-width="0.1">
              <g id="Fig:densplot_01.ticklabels.left.panel.1.1.1.1.scale" transform="scale(1, -1)">
                <text x="0" y="0" id="Fig:densplot_01.ticklabels.left.panel.1.1.1.1.text" transform="rotate(-90)" text-anchor="middle" stroke="rgb(0,0,0)" opacity="1" fill="rgb(0,0,0)" stroke-opacity="1" fill-opacity="1" font-size="9.6" font-weight="normal" font-style="normal">
                  <tspan id="Fig:densplot_01.ticklabels.left.panel.1.1.1.1.tspan.1" dy="0" x="0">0.000</tspan>
                </text>
              </g>
            </g>
            <g id="Fig:densplot_01.ticklabels.left.panel.1.1.1.2" transform="translate(33.47, 94.94)" stroke-width="0.1">
              <g id="Fig:densplot_01.ticklabels.left.panel.1.1.1.2.scale" transform="scale(1, -1)">
                <text x="0" y="0" id="Fig:densplot_01.ticklabels.left.panel.1.1.1.2.text" transform="rotate(-90)" text-anchor="middle" stroke="rgb(0,0,0)" opacity="1" fill="rgb(0,0,0)" stroke-opacity="1" fill-opacity="1" font-size="9.6" font-weight="normal" font-style="normal">
                  <tspan id="Fig:densplot_01.ticklabels.left.panel.1.1.1.2.tspan.1" dy="0" x="0">0.005</tspan>
                </text>
              </g>
            </g>
            <g id="Fig:densplot_01.ticklabels.left.panel.1.1.1.3" transform="translate(33.47, 135.91)" stroke-width="0.1">
              <g id="Fig:densplot_01.ticklabels.left.panel.1.1.1.3.scale" transform="scale(1, -1)">
                <text x="0" y="0" id="Fig:densplot_01.ticklabels.left.panel.1.1.1.3.text" transform="rotate(-90)" text-anchor="middle" stroke="rgb(0,0,0)" opacity="1" fill="rgb(0,0,0)" stroke-opacity="1" fill-opacity="1" font-size="9.6" font-weight="normal" font-style="normal">
                  <tspan id="Fig:densplot_01.ticklabels.left.panel.1.1.1.3.tspan.1" dy="0" x="0">0.010</tspan>
                </text>
              </g>
            </g>
            <g id="Fig:densplot_01.ticklabels.left.panel.1.1.1.4" transform="translate(33.47, 176.89)" stroke-width="0.1">
              <g id="Fig:densplot_01.ticklabels.left.panel.1.1.1.4.scale" transform="scale(1, -1)">
                <text x="0" y="0" id="Fig:densplot_01.ticklabels.left.panel.1.1.1.4.text" transform="rotate(-90)" text-anchor="middle" stroke="rgb(0,0,0)" opacity="1" fill="rgb(0,0,0)" stroke-opacity="1" fill-opacity="1" font-size="9.6" font-weight="normal" font-style="normal">
                  <tspan id="Fig:densplot_01.ticklabels.left.panel.1.1.1.4.tspan.1" dy="0" x="0">0.015</tspan>
                </text>
              </g>
            </g>
            <g id="Fig:densplot_01.ticklabels.left.panel.1.1.1.5" transform="translate(33.47, 217.86)" stroke-width="0.1">
              <g id="Fig:densplot_01.ticklabels.left.panel.1.1.1.5.scale" transform="scale(1, -1)">
                <text x="0" y="0" id="Fig:densplot_01.ticklabels.left.panel.1.1.1.5.text" transform="rotate(-90)" text-anchor="middle" stroke="rgb(0,0,0)" opacity="1" fill="rgb(0,0,0)" stroke-opacity="1" fill-opacity="1" font-size="9.6" font-weight="normal" font-style="normal">
                  <tspan id="Fig:densplot_01.ticklabels.left.panel.1.1.1.5.tspan.1" dy="0" x="0">0.020</tspan>
                </text>
              </g>
            </g>
          </g>
        </g>
        <g id="Fig:densplot_01.panel.1.1.off.vp.1">
          <g id="Fig:densplot_01.ticks.bottom.panel.1.1.1">
            <polyline id="Fig:densplot_01.ticks.bottom.panel.1.1.1.1" points="58.44,42.19 58.44,36.52" stroke="rgb(0,0,0)" opacity="1" stroke-dasharray="none" stroke-width="0.75" stroke-opacity="1" fill="none"/>
            <polyline id="Fig:densplot_01.ticks.bottom.panel.1.1.1.2" points="120.69,42.19 120.69,36.52" stroke="rgb(0,0,0)" opacity="1" stroke-dasharray="none" stroke-width="0.75" stroke-opacity="1" fill="none"/>
            <polyline id="Fig:densplot_01.ticks.bottom.panel.1.1.1.3" points="182.93,42.19 182.93,36.52" stroke="rgb(0,0,0)" opacity="1" stroke-dasharray="none" stroke-width="0.75" stroke-opacity="1" fill="none"/>
            <polyline id="Fig:densplot_01.ticks.bottom.panel.1.1.1.4" points="245.18,42.19 245.18,36.52" stroke="rgb(0,0,0)" opacity="1" stroke-dasharray="none" stroke-width="0.75" stroke-opacity="1" fill="none"/>
          </g>
          <g id="Fig:densplot_01.ticklabels.bottom.panel.1.1.1">
            <g id="Fig:densplot_01.ticklabels.bottom.panel.1.1.1.1" transform="translate(58.44, 30.85)" stroke-width="0.1">
              <g id="Fig:densplot_01.ticklabels.bottom.panel.1.1.1.1.scale" transform="scale(1, -1)">
                <text x="0" y="0" id="Fig:densplot_01.ticklabels.bottom.panel.1.1.1.1.text" text-anchor="middle" stroke="rgb(0,0,0)" opacity="1" fill="rgb(0,0,0)" stroke-opacity="1" fill-opacity="1" font-size="9.6" font-weight="normal" font-style="normal">
                  <tspan id="Fig:densplot_01.ticklabels.bottom.panel.1.1.1.1.tspan.1" dy="7.18" x="0">0</tspan>
                </text>
              </g>
            </g>
            <g id="Fig:densplot_01.ticklabels.bottom.panel.1.1.1.2" transform="translate(120.69, 30.85)" stroke-width="0.1">
              <g id="Fig:densplot_01.ticklabels.bottom.panel.1.1.1.2.scale" transform="scale(1, -1)">
                <text x="0" y="0" id="Fig:densplot_01.ticklabels.bottom.panel.1.1.1.2.text" text-anchor="middle" stroke="rgb(0,0,0)" opacity="1" fill="rgb(0,0,0)" stroke-opacity="1" fill-opacity="1" font-size="9.6" font-weight="normal" font-style="normal">
                  <tspan id="Fig:densplot_01.ticklabels.bottom.panel.1.1.1.2.tspan.1" dy="7.18" x="0">500</tspan>
                </text>
              </g>
            </g>
            <g id="Fig:densplot_01.ticklabels.bottom.panel.1.1.1.3" transform="translate(182.93, 30.85)" stroke-width="0.1">
              <g id="Fig:densplot_01.ticklabels.bottom.panel.1.1.1.3.scale" transform="scale(1, -1)">
                <text x="0" y="0" id="Fig:densplot_01.ticklabels.bottom.panel.1.1.1.3.text" text-anchor="middle" stroke="rgb(0,0,0)" opacity="1" fill="rgb(0,0,0)" stroke-opacity="1" fill-opacity="1" font-size="9.6" font-weight="normal" font-style="normal">
                  <tspan id="Fig:densplot_01.ticklabels.bottom.panel.1.1.1.3.tspan.1" dy="7.18" x="0">1000</tspan>
                </text>
              </g>
            </g>
            <g id="Fig:densplot_01.ticklabels.bottom.panel.1.1.1.4" transform="translate(245.18, 30.85)" stroke-width="0.1">
              <g id="Fig:densplot_01.ticklabels.bottom.panel.1.1.1.4.scale" transform="scale(1, -1)">
                <text x="0" y="0" id="Fig:densplot_01.ticklabels.bottom.panel.1.1.1.4.text" text-anchor="middle" stroke="rgb(0,0,0)" opacity="1" fill="rgb(0,0,0)" stroke-opacity="1" fill-opacity="1" font-size="9.6" font-weight="normal" font-style="normal">
                  <tspan id="Fig:densplot_01.ticklabels.bottom.panel.1.1.1.4.tspan.1" dy="7.18" x="0">1500</tspan>
                </text>
              </g>
            </g>
          </g>
        </g>
        <defs>
          <clipPath id="Fig:densplot_01.panel.1.1.vp.2.clipPath">
            <rect x="44.8" y="42.19" width="231.2" height="191.81" fill="none" stroke="none"/>
          </clipPath>
        </defs>
        <g id="Fig:densplot_01.panel.1.1.vp.2" clip-path="url(#Fig:densplot_01.panel.1.1.vp.2.clipPath)">
          <g id="Fig:densplot_01.xyplot.lines.group.1.panel.1.1.1">
            <polyline id="Fig:densplot_01.xyplot.lines.group.1.panel.1.1.1.1" points="59.61,53.97 60.01,54.02 60.4,54.9 60.8,61.67 61.19,88.3 61.59,142.05 61.98,196.89 62.37,218.48 62.77,207.39 63.16,185.72 63.56,166.7 63.95,152.28 64.35,141.26 64.74,132.47 65.13,125.26 65.53,119.34 65.92,114.22 66.32,109.47 66.71,105.11 67.11,101.34 67.5,98.18 67.89,95.33 68.29,92.49 68.68,89.83 69.08,87.55 69.47,85.57 69.86,83.71 70.26,81.93 70.65,80.33 71.05,78.97 71.44,77.75 71.84,76.5 72.23,75.26 72.62,74.17 73.02,73.23 73.41,72.34 73.81,71.41 74.2,70.49 74.6,69.7 74.99,69.05 75.38,68.46 75.78,67.85 76.17,67.25 76.57,66.75 76.96,66.3 77.36,65.78 77.75,65.21 78.14,64.72 78.54,64.33 78.93,63.99 79.33,63.65 79.72,63.3 80.11,63.01 80.51,62.78 80.9,62.53 81.3,62.2 81.69,61.85 82.09,61.55 82.48,61.32 82.87,61.14 83.27,60.96 83.66,60.77 84.06,60.59 84.45,60.42 84.85,60.2 85.24,59.94 85.63,59.74 86.03,59.63 86.42,59.54 86.82,59.37 87.21,59.19 87.6,59.04 88,58.93 88.39,58.83 88.79,58.73 89.18,58.61 89.58,58.5 89.97,58.37 90.36,58.22 90.76,58.11 91.15,58.05 91.55,57.98 91.94,57.88 92.34,57.76 92.73,57.68 93.12,57.62 93.52,57.58 93.91,57.53 94.31,57.45 94.7,57.35 95.1,57.28 95.49,57.23 95.88,57.18 96.28,57.1 96.67,57.02 97.07,56.96 97.46,56.92 97.85,56.88 98.25,56.83 98.64,56.78 99.04,56.74 99.43,56.68 99.83,56.61 100.22,56.57 100.61,56.53 101.01,56.47 101.4,56.39 101.8,56.32 102.19,56.27 102.59,56.26 102.98,56.27 103.37,56.24 103.77,56.18 104.16,56.13 104.56,56.09 104.95,56.05 105.35,56.02 105.74,55.99 106.13,55.96 106.53,55.93 106.92,55.9 107.32,55.87 107.71,55.85 108.1,55.84 108.5,55.81 108.89,55.76 109.29,55.72 109.68,55.7 110.08,55.69 110.47,55.67 110.86,55.64 111.26,55.63 111.65,55.6 112.05,55.58 112.44,55.56 112.84,55.55 113.23,55.52 113.62,55.5 114.02,55.47 114.41,55.44 114.81,55.41 115.2,55.38 115.59,55.37 115.99,55.36 116.38,55.35 116.78,55.33 117.17,55.33 117.57,55.32 117.96,55.31 118.35,55.29 118.75,55.24 119.14,55.22 119.54,55.22 119.93,55.21 120.33,55.19 120.72,55.19 121.11,55.19 121.51,55.18 121.9,55.15 122.3,55.12 122.69,55.11 123.09,55.1 123.48,55.09 123.87,55.08 124.27,55.06 124.66,55.06 125.06,55.05 125.45,55.04 125.84,55.03 126.24,55.01 126.63,54.98 127.03,54.97 127.42,54.96 127.82,54.94 128.21,54.92 128.6,54.92 129,54.92 129.39,54.91 129.79,54.9 130.18,54.88 130.58,54.85 130.97,54.84 131.36,54.84 131.76,54.84 132.15,54.83 132.55,54.82 132.94,54.79 133.34,54.78 133.73,54.79 134.12,54.79 134.52,54.78 134.91,54.76 135.31,54.74 135.7,54.73 136.09,54.72 136.49,54.71 136.88,54.71 137.28,54.7 137.67,54.7 138.07,54.7 138.46,54.71 138.85,54.7 139.25,54.67 139.64,54.67 140.04,54.67 140.43,54.67 140.83,54.66 141.22,54.66 141.61,54.65 142.01,54.63 142.4,54.61 142.8,54.6 143.19,54.6 143.59,54.6 143.98,54.61 144.37,54.61 144.77,54.6 145.16,54.59 145.56,54.59 145.95,54.58 146.34,54.58 146.74,54.58 147.13,54.58 147.53,54.58 147.92,54.56 148.32,54.54 148.71,54.53 149.1,54.53 149.5,54.52 149.89,54.52 150.29,54.52 150.68,54.52 151.08,54.52 151.47,54.51 151.86,54.5 152.26,54.49 152.65,54.49 153.05,54.49 153.44,54.49 153.83,54.49 154.23,54.48 154.62,54.48 155.02,54.48 155.41,54.47 155.81,54.47 156.2,54.46 156.59,54.46 156.99,54.46 157.38,54.46 157.78,54.45 158.17,54.45 158.57,54.44 158.96,54.43 159.35,54.43 159.75,54.43 160.14,54.43 160.54,54.43 160.93,54.43 161.33,54.43 161.72,54.42 162.11,54.41 162.51,54.4 162.9,54.39 163.3,54.39 163.69,54.39 164.08,54.39 164.48,54.39 164.87,54.38 165.27,54.38 165.66,54.39 166.06,54.39 166.45,54.38 166.84,54.36 167.24,54.35 167.63,54.35 168.03,54.36 168.42,54.36 168.82,54.35 169.21,54.35 169.6,54.35 170,54.35 170.39,54.34 170.79,54.34 171.18,54.34 171.58,54.34 171.97,54.34 172.36,54.34 172.76,54.33 173.15,54.33 173.55,54.32 173.94,54.31 174.33,54.3 174.73,54.3 175.12,54.31 175.52,54.31 175.91,54.31 176.31,54.3 176.7,54.3 177.09,54.31 177.49,54.31 177.88,54.31 178.28,54.3 178.67,54.29 179.07,54.28 179.46,54.27 179.85,54.27 180.25,54.28 180.64,54.28 181.04,54.29 181.43,54.29 181.83,54.29 182.22,54.28 182.61,54.27 183.01,54.27 183.4,54.27 183.8,54.27 184.19,54.27 184.58,54.26 184.98,54.26 185.37,54.26 185.77,54.26 186.16,54.26 186.56,54.25 186.95,54.25 187.34,54.25 187.74,54.24 188.13,54.23 188.53,54.24 188.92,54.25 189.32,54.26 189.71,54.26 190.1,54.25 190.5,54.24 190.89,54.23 191.29,54.23 191.68,54.23 192.07,54.23 192.47,54.23 192.86,54.23 193.26,54.24 193.65,54.24 194.05,54.23 194.44,54.22 194.83,54.22 195.23,54.22 195.62,54.22 196.02,54.22 196.41,54.21 196.81,54.21 197.2,54.21 197.59,54.21 197.99,54.21 198.38,54.21 198.78,54.21 199.17,54.21 199.57,54.21 199.96,54.21 200.35,54.2 200.75,54.2 201.14,54.19 201.54,54.19 201.93,54.19 202.32,54.18 202.72,54.19 203.11,54.19 203.51,54.19 203.9,54.18 204.3,54.18 204.69,54.18 205.08,54.18 205.48,54.18 205.87,54.18 206.27,54.18 206.66,54.19 207.06,54.19 207.45,54.18 207.84,54.18 208.24,54.17 208.63,54.17 209.03,54.17 209.42,54.17 209.82,54.17 210.21,54.17 210.6,54.16 211,54.16 211.39,54.16 211.79,54.16 212.18,54.16 212.57,54.16 212.97,54.16 213.36,54.16 213.76,54.15 214.15,54.15 214.55,54.15 214.94,54.14 215.33,54.14 215.73,54.14 216.12,54.14 216.52,54.14 216.91,54.15 217.31,54.15 217.7,54.15 218.09,54.15 218.49,54.14 218.88,54.13 219.28,54.14 219.67,54.14 220.06,54.14 220.46,54.13 220.85,54.13 221.25,54.14 221.64,54.14 222.04,54.13 222.43,54.14 222.82,54.14 223.22,54.14 223.61,54.14 224.01,54.14 224.4,54.13 224.8,54.13 225.19,54.13 225.58,54.13 225.98,54.13 226.37,54.13 226.77,54.14 227.16,54.14 227.56,54.13 227.95,54.13 228.34,54.12 228.74,54.12 229.13,54.12 229.53,54.12 229.92,54.12 230.31,54.12 230.71,54.12 231.1,54.12 231.5,54.12 231.89,54.12 232.29,54.12 232.68,54.12 233.07,54.12 233.47,54.11 233.86,54.11 234.26,54.11 234.65,54.11 235.05,54.1 235.44,54.1 235.83,54.1 236.23,54.1 236.62,54.1 237.02,54.11 237.41,54.11 237.81,54.11 238.2,54.1 238.59,54.1 238.99,54.11 239.38,54.1 239.78,54.09 240.17,54.09 240.56,54.1 240.96,54.1 241.35,54.1 241.75,54.1 242.14,54.1 242.54,54.1 242.93,54.11 243.32,54.1 243.72,54.1 244.11,54.1 244.51,54.09 244.9,54.09 245.3,54.09 245.69,54.09 246.08,54.09 246.48,54.08 246.87,54.08 247.27,54.09 247.66,54.1 248.06,54.1 248.45,54.09 248.84,54.09 249.24,54.09 249.63,54.09 250.03,54.09 250.42,54.09 250.81,54.09 251.21,54.08 251.6,54.08 252,54.08 252.39,54.09 252.79,54.09 253.18,54.09 253.57,54.09 253.97,54.08 254.36,54.08 254.76,54.08 255.15,54.08 255.55,54.08 255.94,54.08 256.33,54.08 256.73,54.08 257.12,54.08 257.52,54.08 257.91,54.08 258.3,54.08 258.7,54.07 259.09,54.07 259.49,54.06 259.88,54.03 260.28,53.99 260.67,53.97 261.06,53.97" stroke-dasharray="none" stroke="rgb(31,120,180)" stroke-width="0.75" opacity="1" stroke-opacity="1" fill="none"/>
          </g>
          <g id="Fig:densplot_01.xyplot.lines.group.2.panel.1.1.1">
            <polyline id="Fig:densplot_01.xyplot.lines.group.2.panel.1.1.1.1" points="59.3,53.98 59.69,54.06 60.09,54.67 60.49,57.44 60.88,66.18 61.28,85.12 61.67,113.39 62.07,141.91 62.46,159.62 62.86,162.69 63.26,155.61 63.65,145.05 64.05,135.21 64.44,127.37 64.84,121.28 65.24,116.38 65.63,112.26 66.03,108.73 66.42,105.64 66.82,102.83 67.22,100.26 67.61,97.95 68.01,95.84 68.4,93.84 68.8,91.91 69.2,90.11 69.59,88.45 69.99,86.86 70.38,85.35 70.78,83.97 71.18,82.72 71.57,81.53 71.97,80.38 72.36,79.3 72.76,78.27 73.16,77.27 73.55,76.31 73.95,75.4 74.34,74.56 74.74,73.72 75.14,72.92 75.53,72.2 75.93,71.55 76.32,70.94 76.72,70.36 77.12,69.8 77.51,69.28 77.91,68.74 78.3,68.2 78.7,67.68 79.1,67.21 79.49,66.78 79.89,66.4 80.28,66.05 80.68,65.7 81.07,65.32 81.47,64.93 81.87,64.56 82.26,64.25 82.66,63.98 83.05,63.73 83.45,63.48 83.85,63.22 84.24,62.93 84.64,62.66 85.03,62.42 85.43,62.21 85.83,62.02 86.22,61.83 86.62,61.63 87.01,61.43 87.41,61.23 87.81,61.03 88.2,60.86 88.6,60.71 88.99,60.55 89.39,60.38 89.79,60.23 90.18,60.09 90.58,59.94 90.97,59.78 91.37,59.65 91.77,59.54 92.16,59.44 92.56,59.33 92.95,59.23 93.35,59.13 93.75,59.04 94.14,58.94 94.54,58.83 94.93,58.72 95.33,58.6 95.73,58.48 96.12,58.38 96.52,58.29 96.91,58.21 97.31,58.13 97.71,58.06 98.1,58 98.5,57.94 98.89,57.89 99.29,57.81 99.68,57.73 100.08,57.65 100.48,57.58 100.87,57.51 101.27,57.45 101.66,57.39 102.06,57.34 102.46,57.3 102.85,57.26 103.25,57.2 103.64,57.13 104.04,57.07 104.44,57.01 104.83,56.95 105.23,56.89 105.62,56.84 106.02,56.79 106.42,56.75 106.81,56.71 107.21,56.68 107.6,56.65 108,56.63 108.4,56.6 108.79,56.56 109.19,56.53 109.58,56.49 109.98,56.45 110.38,56.42 110.77,56.39 111.17,56.36 111.56,56.31 111.96,56.25 112.36,56.2 112.75,56.16 113.15,56.13 113.54,56.11 113.94,56.09 114.34,56.07 114.73,56.05 115.13,56.02 115.52,55.99 115.92,55.96 116.32,55.93 116.71,55.9 117.11,55.88 117.5,55.87 117.9,55.85 118.29,55.84 118.69,55.83 119.09,55.82 119.48,55.79 119.88,55.75 120.27,55.71 120.67,55.68 121.07,55.66 121.46,55.64 121.86,55.62 122.25,55.61 122.65,55.59 123.05,55.57 123.44,55.55 123.84,55.53 124.23,55.51 124.63,55.49 125.03,55.47 125.42,55.45 125.82,55.44 126.21,55.42 126.61,55.41 127.01,55.4 127.4,55.38 127.8,55.37 128.19,55.35 128.59,55.33 128.99,55.32 129.38,55.3 129.78,55.29 130.17,55.28 130.57,55.26 130.97,55.25 131.36,55.24 131.76,55.24 132.15,55.23 132.55,55.21 132.95,55.19 133.34,55.17 133.74,55.16 134.13,55.15 134.53,55.14 134.92,55.13 135.32,55.11 135.72,55.1 136.11,55.1 136.51,55.1 136.9,55.09 137.3,55.08 137.7,55.07 138.09,55.05 138.49,55.04 138.88,55.03 139.28,55.02 139.68,55.01 140.07,55 140.47,55 140.86,54.99 141.26,54.98 141.66,54.96 142.05,54.94 142.45,54.93 142.84,54.92 143.24,54.91 143.64,54.89 144.03,54.88 144.43,54.88 144.82,54.88 145.22,54.88 145.62,54.88 146.01,54.86 146.41,54.85 146.8,54.84 147.2,54.83 147.6,54.82 147.99,54.81 148.39,54.8 148.78,54.79 149.18,54.78 149.58,54.78 149.97,54.78 150.37,54.78 150.76,54.78 151.16,54.78 151.56,54.77 151.95,54.76 152.35,54.75 152.74,54.74 153.14,54.73 153.53,54.72 153.93,54.72 154.33,54.72 154.72,54.71 155.12,54.71 155.51,54.7 155.91,54.69 156.31,54.68 156.7,54.67 157.1,54.67 157.49,54.68 157.89,54.68 158.29,54.68 158.68,54.67 159.08,54.65 159.47,54.64 159.87,54.64 160.27,54.65 160.66,54.65 161.06,54.63 161.45,54.62 161.85,54.61 162.25,54.59 162.64,54.59 163.04,54.58 163.43,54.59 163.83,54.59 164.23,54.58 164.62,54.57 165.02,54.57 165.41,54.56 165.81,54.55 166.21,54.54 166.6,54.55 167,54.56 167.39,54.57 167.79,54.56 168.19,54.55 168.58,54.54 168.98,54.53 169.37,54.52 169.77,54.52 170.17,54.52 170.56,54.52 170.96,54.52 171.35,54.52 171.75,54.51 172.14,54.51 172.54,54.5 172.94,54.5 173.33,54.5 173.73,54.5 174.12,54.51 174.52,54.5 174.92,54.5 175.31,54.49 175.71,54.47 176.1,54.46 176.5,54.46 176.9,54.45 177.29,54.45 177.69,54.45 178.08,54.45 178.48,54.45 178.88,54.44 179.27,54.44 179.67,54.43 180.06,54.43 180.46,54.42 180.86,54.42 181.25,54.41 181.65,54.41 182.04,54.42 182.44,54.42 182.84,54.41 183.23,54.41 183.63,54.41 184.02,54.4 184.42,54.4 184.82,54.4 185.21,54.39 185.61,54.38 186,54.38 186.4,54.38 186.8,54.38 187.19,54.38 187.59,54.38 187.98,54.37 188.38,54.37 188.78,54.37 189.17,54.38 189.57,54.38 189.96,54.38 190.36,54.38 190.75,54.38 191.15,54.37 191.55,54.37 191.94,54.36 192.34,54.37 192.73,54.37 193.13,54.37 193.53,54.37 193.92,54.36 194.32,54.35 194.71,54.34 195.11,54.34 195.51,54.34 195.9,54.34 196.3,54.35 196.69,54.34 197.09,54.34 197.49,54.34 197.88,54.33 198.28,54.33 198.67,54.33 199.07,54.33 199.47,54.33 199.86,54.33 200.26,54.32 200.65,54.32 201.05,54.32 201.45,54.31 201.84,54.31 202.24,54.3 202.63,54.3 203.03,54.29 203.43,54.29 203.82,54.29 204.22,54.28 204.61,54.28 205.01,54.29 205.41,54.29 205.8,54.29 206.2,54.29 206.59,54.28 206.99,54.28 207.39,54.27 207.78,54.28 208.18,54.28 208.57,54.27 208.97,54.27 209.36,54.27 209.76,54.27 210.16,54.27 210.55,54.27 210.95,54.27 211.34,54.26 211.74,54.26 212.14,54.25 212.53,54.25 212.93,54.26 213.32,54.26 213.72,54.26 214.12,54.26 214.51,54.25 214.91,54.24 215.3,54.23 215.7,54.23 216.1,54.23 216.49,54.24 216.89,54.24 217.28,54.24 217.68,54.23 218.08,54.23 218.47,54.23 218.87,54.23 219.26,54.23 219.66,54.23 220.06,54.23 220.45,54.23 220.85,54.23 221.24,54.23 221.64,54.23 222.04,54.23 222.43,54.22 222.83,54.22 223.22,54.22 223.62,54.22 224.02,54.23 224.41,54.23 224.81,54.23 225.2,54.22 225.6,54.22 226,54.22 226.39,54.21 226.79,54.2 227.18,54.2 227.58,54.19 227.97,54.2 228.37,54.21 228.77,54.22 229.16,54.22 229.56,54.21 229.95,54.21 230.35,54.2 230.75,54.2 231.14,54.2 231.54,54.2 231.93,54.2 232.33,54.19 232.73,54.18 233.12,54.18 233.52,54.18 233.91,54.18 234.31,54.18 234.71,54.18 235.1,54.18 235.5,54.19 235.89,54.19 236.29,54.18 236.69,54.18 237.08,54.18 237.48,54.18 237.87,54.18 238.27,54.17 238.67,54.17 239.06,54.16 239.46,54.16 239.85,54.16 240.25,54.17 240.65,54.16 241.04,54.16 241.44,54.16 241.83,54.16 242.23,54.16 242.63,54.16 243.02,54.16 243.42,54.16 243.81,54.16 244.21,54.16 244.6,54.16 245,54.16 245.4,54.16 245.79,54.15 246.19,54.15 246.58,54.15 246.98,54.15 247.38,54.15 247.77,54.15 248.17,54.15 248.56,54.14 248.96,54.14 249.36,54.14 249.75,54.15 250.15,54.15 250.54,54.15 250.94,54.15 251.34,54.15 251.73,54.15 252.13,54.15 252.52,54.15 252.92,54.15 253.32,54.15 253.71,54.14 254.11,54.14 254.5,54.14 254.9,54.14 255.3,54.14 255.69,54.14 256.09,54.14 256.48,54.14 256.88,54.14 257.28,54.13 257.67,54.13 258.07,54.13 258.46,54.13 258.86,54.12 259.26,54.1 259.65,54.07 260.05,54.03 260.44,54 260.84,53.98 261.24,53.97 261.63,53.97" stroke-dasharray="none" stroke="rgb(31,120,180)" stroke-width="0.75" opacity="1" stroke-opacity="1" fill="none"/>
          </g>
          <g id="Fig:densplot_01.xyplot.lines.group.3.panel.1.1.1">
            <polyline id="Fig:densplot_01.xyplot.lines.group.3.panel.1.1.1.1" points="59,53.97 59.4,54.03 59.79,54.36 60.19,55.78 60.59,60.4 60.98,71.62 61.38,91.9 61.78,118.67 62.18,143.25 62.57,156.67 62.97,156.82 63.37,148.65 63.76,138.38 64.16,129.37 64.56,122.31 64.95,116.81 65.35,112.42 65.75,108.75 66.14,105.58 66.54,102.8 66.94,100.34 67.33,98.1 67.73,95.98 68.13,93.97 68.53,92.11 68.92,90.37 69.32,88.74 69.72,87.22 70.11,85.77 70.51,84.39 70.91,83.1 71.3,81.91 71.7,80.82 72.1,79.78 72.49,78.77 72.89,77.81 73.29,76.89 73.68,75.99 74.08,75.13 74.48,74.32 74.88,73.57 75.27,72.83 75.67,72.13 76.07,71.48 76.46,70.86 76.86,70.27 77.26,69.7 77.65,69.17 78.05,68.68 78.45,68.22 78.84,67.79 79.24,67.4 79.64,67 80.03,66.6 80.43,66.2 80.83,65.82 81.23,65.46 81.62,65.12 82.02,64.8 82.42,64.51 82.81,64.23 83.21,63.96 83.61,63.69 84,63.44 84.4,63.19 84.8,62.94 85.19,62.69 85.59,62.45 85.99,62.22 86.38,62.02 86.78,61.83 87.18,61.65 87.58,61.49 87.97,61.34 88.37,61.18 88.77,61 89.16,60.83 89.56,60.66 89.96,60.5 90.35,60.34 90.75,60.18 91.15,60.05 91.54,59.95 91.94,59.83 92.34,59.71 92.73,59.58 93.13,59.46 93.53,59.36 93.93,59.26 94.32,59.17 94.72,59.06 95.12,58.94 95.51,58.81 95.91,58.7 96.31,58.61 96.7,58.53 97.1,58.47 97.5,58.4 97.89,58.31 98.29,58.22 98.69,58.15 99.08,58.07 99.48,58 99.88,57.92 100.28,57.86 100.67,57.8 101.07,57.73 101.47,57.67 101.86,57.6 102.26,57.53 102.66,57.46 103.05,57.4 103.45,57.35 103.85,57.31 104.24,57.27 104.64,57.23 105.04,57.18 105.43,57.13 105.83,57.08 106.23,57.04 106.63,56.99 107.02,56.95 107.42,56.92 107.82,56.88 108.21,56.84 108.61,56.79 109.01,56.72 109.4,56.67 109.8,56.62 110.2,56.59 110.59,56.56 110.99,56.54 111.39,56.51 111.78,56.47 112.18,56.43 112.58,56.4 112.98,56.37 113.37,56.34 113.77,56.32 114.17,56.29 114.56,56.25 114.96,56.21 115.36,56.19 115.75,56.17 116.15,56.16 116.55,56.14 116.94,56.11 117.34,56.07 117.74,56.02 118.13,55.97 118.53,55.94 118.93,55.91 119.33,55.89 119.72,55.87 120.12,55.85 120.52,55.82 120.91,55.8 121.31,55.78 121.71,55.77 122.1,55.76 122.5,55.74 122.9,55.72 123.29,55.69 123.69,55.67 124.09,55.64 124.48,55.63 124.88,55.61 125.28,55.6 125.68,55.58 126.07,55.56 126.47,55.55 126.87,55.54 127.26,55.52 127.66,55.5 128.06,55.48 128.45,55.47 128.85,55.46 129.25,55.44 129.64,55.43 130.04,55.4 130.44,55.38 130.83,55.36 131.23,55.35 131.63,55.34 132.03,55.34 132.42,55.34 132.82,55.34 133.22,55.33 133.61,55.32 134.01,55.3 134.41,55.28 134.8,55.26 135.2,55.24 135.6,55.23 135.99,55.22 136.39,55.2 136.79,55.18 137.18,55.16 137.58,55.15 137.98,55.13 138.38,55.13 138.77,55.13 139.17,55.13 139.57,55.13 139.96,55.13 140.36,55.12 140.76,55.12 141.15,55.11 141.55,55.1 141.95,55.08 142.34,55.06 142.74,55.05 143.14,55.04 143.53,55.04 143.93,55.03 144.33,55.02 144.73,55 145.12,54.97 145.52,54.96 145.92,54.95 146.31,54.94 146.71,54.94 147.11,54.94 147.5,54.94 147.9,54.94 148.3,54.93 148.69,54.93 149.09,54.92 149.49,54.91 149.88,54.89 150.28,54.88 150.68,54.87 151.08,54.86 151.47,54.85 151.87,54.84 152.27,54.83 152.66,54.83 153.06,54.83 153.46,54.83 153.85,54.83 154.25,54.82 154.65,54.82 155.04,54.82 155.44,54.81 155.84,54.8 156.23,54.78 156.63,54.76 157.03,54.75 157.43,54.74 157.82,54.75 158.22,54.75 158.62,54.76 159.01,54.76 159.41,54.75 159.81,54.74 160.2,54.73 160.6,54.74 161,54.74 161.39,54.74 161.79,54.73 162.19,54.73 162.58,54.71 162.98,54.7 163.38,54.69 163.78,54.68 164.17,54.67 164.57,54.66 164.97,54.66 165.36,54.65 165.76,54.65 166.16,54.65 166.55,54.65 166.95,54.66 167.35,54.66 167.74,54.65 168.14,54.64 168.54,54.63 168.93,54.62 169.33,54.61 169.73,54.6 170.13,54.6 170.52,54.6 170.92,54.6 171.32,54.59 171.71,54.59 172.11,54.58 172.51,54.58 172.9,54.57 173.3,54.57 173.7,54.57 174.09,54.56 174.49,54.56 174.89,54.56 175.28,54.55 175.68,54.54 176.08,54.53 176.48,54.52 176.87,54.52 177.27,54.52 177.67,54.52 178.06,54.52 178.46,54.52 178.86,54.52 179.25,54.52 179.65,54.51 180.05,54.51 180.44,54.5 180.84,54.5 181.24,54.49 181.63,54.48 182.03,54.47 182.43,54.47 182.83,54.47 183.22,54.47 183.62,54.48 184.02,54.48 184.41,54.48 184.81,54.47 185.21,54.45 185.6,54.45 186,54.44 186.4,54.45 186.79,54.45 187.19,54.45 187.59,54.45 187.98,54.45 188.38,54.44 188.78,54.44 189.18,54.44 189.57,54.44 189.97,54.43 190.37,54.43 190.76,54.42 191.16,54.42 191.56,54.42 191.95,54.42 192.35,54.41 192.75,54.41 193.14,54.41 193.54,54.4 193.94,54.4 194.33,54.4 194.73,54.4 195.13,54.39 195.53,54.39 195.92,54.39 196.32,54.39 196.72,54.39 197.11,54.38 197.51,54.38 197.91,54.37 198.3,54.37 198.7,54.36 199.1,54.36 199.49,54.37 199.89,54.37 200.29,54.37 200.68,54.37 201.08,54.37 201.48,54.36 201.88,54.35 202.27,54.35 202.67,54.35 203.07,54.36 203.46,54.36 203.86,54.36 204.26,54.35 204.65,54.35 205.05,54.35 205.45,54.35 205.84,54.34 206.24,54.34 206.64,54.33 207.03,54.33 207.43,54.32 207.83,54.32 208.23,54.32 208.62,54.32 209.02,54.33 209.42,54.33 209.81,54.34 210.21,54.34 210.61,54.33 211,54.32 211.4,54.31 211.8,54.3 212.19,54.3 212.59,54.3 212.99,54.3 213.38,54.29 213.78,54.29 214.18,54.29 214.58,54.29 214.97,54.29 215.37,54.29 215.77,54.29 216.16,54.29 216.56,54.29 216.96,54.29 217.35,54.29 217.75,54.29 218.15,54.28 218.54,54.28 218.94,54.28 219.34,54.28 219.73,54.28 220.13,54.28 220.53,54.28 220.93,54.28 221.32,54.28 221.72,54.28 222.12,54.28 222.51,54.27 222.91,54.27 223.31,54.26 223.7,54.26 224.1,54.26 224.5,54.26 224.89,54.26 225.29,54.26 225.69,54.25 226.08,54.25 226.48,54.25 226.88,54.25 227.28,54.25 227.67,54.25 228.07,54.25 228.47,54.25 228.86,54.24 229.26,54.24 229.66,54.24 230.05,54.23 230.45,54.23 230.85,54.24 231.24,54.24 231.64,54.24 232.04,54.24 232.43,54.24 232.83,54.24 233.23,54.24 233.63,54.24 234.02,54.23 234.42,54.23 234.82,54.23 235.21,54.23 235.61,54.23 236.01,54.22 236.4,54.22 236.8,54.22 237.2,54.22 237.59,54.21 237.99,54.21 238.39,54.21 238.78,54.21 239.18,54.21 239.58,54.21 239.98,54.21 240.37,54.21 240.77,54.21 241.17,54.21 241.56,54.21 241.96,54.21 242.36,54.2 242.75,54.2 243.15,54.19 243.55,54.19 243.94,54.19 244.34,54.2 244.74,54.2 245.13,54.2 245.53,54.19 245.93,54.2 246.33,54.2 246.72,54.2 247.12,54.2 247.52,54.2 247.91,54.2 248.31,54.2 248.71,54.2 249.1,54.19 249.5,54.19 249.9,54.19 250.29,54.19 250.69,54.19 251.09,54.19 251.48,54.2 251.88,54.2 252.28,54.2 252.68,54.2 253.07,54.19 253.47,54.18 253.87,54.18 254.26,54.18 254.66,54.17 255.06,54.17 255.45,54.18 255.85,54.18 256.25,54.18 256.64,54.17 257.04,54.17 257.44,54.17 257.83,54.18 258.23,54.18 258.63,54.17 259.03,54.16 259.42,54.13 259.82,54.08 260.22,54.04 260.61,54 261.01,53.98 261.41,53.97 261.8,53.97" stroke-dasharray="none" stroke="rgb(31,120,180)" stroke-width="0.75" opacity="1" stroke-opacity="1" fill="none"/>
          </g>
          <g id="Fig:densplot_01.xyplot.lines.group.4.panel.1.1.1">
            <polyline id="Fig:densplot_01.xyplot.lines.group.4.panel.1.1.1.1" points="59.65,53.97 60.05,54.12 60.44,56.08 60.84,68.33 61.23,106.1 61.62,164.88 62.02,208.35 62.41,215.21 62.81,199.04 63.2,178.72 63.59,161.83 63.99,149.05 64.38,139.41 64.78,131.7 65.17,124.87 65.57,118.75 65.96,113.52 66.35,109.06 66.75,105 67.14,101.19 67.54,97.79 67.93,94.89 68.32,92.27 68.72,89.79 69.11,87.44 69.51,85.35 69.9,83.53 70.29,81.88 70.69,80.3 71.08,78.72 71.48,77.25 71.87,75.97 72.26,74.8 72.66,73.68 73.05,72.62 73.45,71.71 73.84,70.93 74.23,70.2 74.63,69.47 75.02,68.81 75.42,68.19 75.81,67.58 76.21,66.98 76.6,66.36 76.99,65.8 77.39,65.34 77.78,64.96 78.18,64.57 78.57,64.15 78.96,63.74 79.36,63.38 79.75,63.06 80.15,62.74 80.54,62.4 80.93,62.12 81.33,61.89 81.72,61.66 82.12,61.4 82.51,61.15 82.9,60.93 83.3,60.73 83.69,60.5 84.09,60.25 84.48,60.06 84.87,59.92 85.27,59.76 85.66,59.59 86.06,59.42 86.45,59.25 86.85,59.09 87.24,58.98 87.63,58.88 88.03,58.75 88.42,58.62 88.82,58.53 89.21,58.45 89.6,58.34 90,58.21 90.39,58.09 90.79,57.99 91.18,57.9 91.57,57.81 91.97,57.69 92.36,57.58 92.76,57.51 93.15,57.46 93.54,57.4 93.94,57.34 94.33,57.26 94.73,57.18 95.12,57.1 95.51,57.02 95.91,56.97 96.3,56.93 96.7,56.89 97.09,56.82 97.49,56.74 97.88,56.7 98.27,56.66 98.67,56.6 99.06,56.53 99.46,56.47 99.85,56.45 100.24,56.45 100.64,56.42 101.03,56.37 101.43,56.31 101.82,56.27 102.21,56.23 102.61,56.19 103,56.17 103.4,56.16 103.79,56.12 104.18,56.07 104.58,56.01 104.97,55.96 105.37,55.93 105.76,55.89 106.15,55.85 106.55,55.83 106.94,55.82 107.34,55.8 107.73,55.78 108.13,55.74 108.52,55.69 108.91,55.67 109.31,55.66 109.7,55.64 110.1,55.6 110.49,55.59 110.88,55.6 111.28,55.6 111.67,55.56 112.07,55.52 112.46,55.49 112.85,55.47 113.25,55.45 113.64,55.42 114.04,55.39 114.43,55.35 114.82,55.34 115.22,55.33 115.61,55.33 116.01,55.33 116.4,55.33 116.79,55.32 117.19,55.3 117.58,55.26 117.98,55.24 118.37,55.22 118.77,55.2 119.16,55.18 119.55,55.17 119.95,55.15 120.34,55.14 120.74,55.13 121.13,55.11 121.52,55.09 121.92,55.08 122.31,55.07 122.71,55.07 123.1,55.06 123.49,55.05 123.89,55.04 124.28,55.03 124.68,54.99 125.07,54.95 125.46,54.92 125.86,54.91 126.25,54.91 126.65,54.9 127.04,54.9 127.43,54.89 127.83,54.9 128.22,54.91 128.62,54.91 129.01,54.89 129.4,54.87 129.8,54.86 130.19,54.86 130.59,54.85 130.98,54.83 131.38,54.81 131.77,54.8 132.16,54.79 132.56,54.78 132.95,54.78 133.35,54.77 133.74,54.76 134.13,54.77 134.53,54.76 134.92,54.73 135.32,54.71 135.71,54.69 136.1,54.68 136.5,54.68 136.89,54.7 137.29,54.7 137.68,54.7 138.07,54.69 138.47,54.67 138.86,54.66 139.26,54.66 139.65,54.66 140.04,54.66 140.44,54.64 140.83,54.64 141.23,54.64 141.62,54.64 142.02,54.64 142.41,54.64 142.8,54.62 143.2,54.6 143.59,54.58 143.99,54.57 144.38,54.57 144.77,54.56 145.17,54.56 145.56,54.56 145.96,54.55 146.35,54.55 146.74,54.55 147.14,54.56 147.53,54.55 147.93,54.54 148.32,54.53 148.71,54.53 149.11,54.52 149.5,54.51 149.9,54.5 150.29,54.5 150.68,54.5 151.08,54.51 151.47,54.5 151.87,54.5 152.26,54.49 152.66,54.48 153.05,54.47 153.44,54.46 153.84,54.46 154.23,54.46 154.63,54.46 155.02,54.45 155.41,54.46 155.81,54.46 156.2,54.45 156.6,54.46 156.99,54.46 157.38,54.45 157.78,54.43 158.17,54.43 158.57,54.43 158.96,54.42 159.35,54.42 159.75,54.42 160.14,54.42 160.54,54.42 160.93,54.41 161.32,54.41 161.72,54.4 162.11,54.39 162.51,54.39 162.9,54.38 163.3,54.38 163.69,54.38 164.08,54.38 164.48,54.38 164.87,54.38 165.27,54.38 165.66,54.38 166.05,54.38 166.45,54.37 166.84,54.38 167.24,54.38 167.63,54.37 168.02,54.36 168.42,54.35 168.81,54.34 169.21,54.34 169.6,54.34 169.99,54.34 170.39,54.33 170.78,54.33 171.18,54.33 171.57,54.34 171.96,54.33 172.36,54.32 172.75,54.32 173.15,54.34 173.54,54.34 173.94,54.34 174.33,54.32 174.72,54.31 175.12,54.3 175.51,54.3 175.91,54.3 176.3,54.29 176.69,54.29 177.09,54.29 177.48,54.29 177.88,54.29 178.27,54.29 178.66,54.29 179.06,54.29 179.45,54.3 179.85,54.3 180.24,54.29 180.63,54.28 181.03,54.27 181.42,54.27 181.82,54.28 182.21,54.27 182.6,54.27 183,54.27 183.39,54.27 183.79,54.26 184.18,54.26 184.58,54.25 184.97,54.25 185.36,54.26 185.76,54.26 186.15,54.25 186.55,54.25 186.94,54.25 187.33,54.24 187.73,54.24 188.12,54.24 188.52,54.24 188.91,54.24 189.3,54.23 189.7,54.23 190.09,54.23 190.49,54.24 190.88,54.24 191.27,54.24 191.67,54.23 192.06,54.22 192.46,54.22 192.85,54.22 193.24,54.22 193.64,54.22 194.03,54.22 194.43,54.21 194.82,54.2 195.22,54.2 195.61,54.21 196,54.22 196.4,54.21 196.79,54.21 197.19,54.21 197.58,54.21 197.97,54.2 198.37,54.2 198.76,54.2 199.16,54.2 199.55,54.2 199.94,54.19 200.34,54.19 200.73,54.19 201.13,54.2 201.52,54.2 201.91,54.19 202.31,54.19 202.7,54.19 203.1,54.19 203.49,54.18 203.88,54.18 204.28,54.18 204.67,54.17 205.07,54.17 205.46,54.17 205.86,54.18 206.25,54.18 206.64,54.18 207.04,54.18 207.43,54.17 207.83,54.17 208.22,54.17 208.61,54.17 209.01,54.17 209.4,54.17 209.8,54.17 210.19,54.17 210.58,54.16 210.98,54.16 211.37,54.16 211.77,54.16 212.16,54.16 212.55,54.16 212.95,54.15 213.34,54.15 213.74,54.15 214.13,54.16 214.52,54.16 214.92,54.16 215.31,54.16 215.71,54.16 216.1,54.16 216.5,54.16 216.89,54.16 217.28,54.15 217.68,54.15 218.07,54.15 218.47,54.14 218.86,54.14 219.25,54.14 219.65,54.14 220.04,54.14 220.44,54.13 220.83,54.14 221.22,54.14 221.62,54.14 222.01,54.14 222.41,54.14 222.8,54.13 223.19,54.13 223.59,54.13 223.98,54.13 224.38,54.14 224.77,54.13 225.16,54.13 225.56,54.12 225.95,54.12 226.35,54.13 226.74,54.12 227.14,54.12 227.53,54.12 227.92,54.12 228.32,54.12 228.71,54.12 229.11,54.12 229.5,54.11 229.89,54.12 230.29,54.12 230.68,54.13 231.08,54.13 231.47,54.12 231.86,54.11 232.26,54.11 232.65,54.11 233.05,54.11 233.44,54.11 233.83,54.11 234.23,54.11 234.62,54.11 235.02,54.1 235.41,54.11 235.8,54.11 236.2,54.12 236.59,54.12 236.99,54.11 237.38,54.11 237.77,54.11 238.17,54.11 238.56,54.11 238.96,54.11 239.35,54.1 239.75,54.1 240.14,54.1 240.53,54.1 240.93,54.1 241.32,54.1 241.72,54.1 242.11,54.1 242.5,54.1 242.9,54.1 243.29,54.1 243.69,54.09 244.08,54.09 244.47,54.09 244.87,54.09 245.26,54.09 245.66,54.09 246.05,54.09 246.44,54.1 246.84,54.09 247.23,54.08 247.63,54.08 248.02,54.09 248.41,54.09 248.81,54.09 249.2,54.09 249.6,54.08 249.99,54.08 250.39,54.09 250.78,54.09 251.17,54.09 251.57,54.09 251.96,54.09 252.36,54.09 252.75,54.08 253.14,54.08 253.54,54.08 253.93,54.08 254.33,54.08 254.72,54.08 255.11,54.08 255.51,54.08 255.9,54.08 256.3,54.08 256.69,54.08 257.08,54.08 257.48,54.07 257.87,54.07 258.27,54.07 258.66,54.07 259.05,54.07 259.45,54.06 259.84,54.03 260.24,53.99 260.63,53.97 261.03,53.97" stroke-dasharray="none" stroke="rgb(31,120,180)" stroke-width="0.75" opacity="1" stroke-opacity="1" fill="none"/>
          </g>
          <g id="Fig:densplot_01.xyplot.lines.group.5.panel.1.1.1">
            <polyline id="Fig:densplot_01.xyplot.lines.group.5.panel.1.1.1.1" points="59.43,53.97 59.82,54.07 60.22,55.05 60.61,60.48 61.01,78.54 61.4,115.03 61.8,159.73 62.19,190.36 62.59,195.74 62.98,184.14 63.38,168.28 63.77,154.13 64.17,142.48 64.56,132.98 64.96,125.27 65.35,119.06 65.75,113.95 66.14,109.46 66.54,105.34 66.93,101.75 67.33,98.74 67.72,96.06 68.12,93.44 68.51,90.93 68.91,88.72 69.3,86.81 69.7,85 70.09,83.19 70.49,81.53 70.88,80.14 71.28,78.89 71.67,77.63 72.07,76.45 72.46,75.44 72.86,74.52 73.25,73.57 73.65,72.63 74.04,71.77 74.44,71.01 74.83,70.25 75.23,69.45 75.62,68.75 76.02,68.22 76.41,67.74 76.81,67.2 77.2,66.63 77.6,66.17 77.99,65.81 78.39,65.43 78.78,65 79.18,64.57 79.57,64.2 79.97,63.83 80.36,63.46 80.76,63.13 81.15,62.85 81.55,62.59 81.94,62.33 82.34,62.08 82.73,61.84 83.13,61.61 83.52,61.4 83.92,61.18 84.31,60.96 84.71,60.77 85.1,60.61 85.5,60.44 85.89,60.24 86.29,60.04 86.68,59.87 87.08,59.71 87.47,59.56 87.87,59.42 88.26,59.3 88.66,59.21 89.05,59.12 89.45,59.03 89.84,58.91 90.24,58.8 90.63,58.69 91.03,58.57 91.42,58.45 91.82,58.36 92.21,58.29 92.61,58.2 93,58.1 93.4,58 93.79,57.92 94.19,57.84 94.58,57.74 94.98,57.66 95.37,57.61 95.77,57.56 96.16,57.5 96.56,57.43 96.95,57.36 97.35,57.3 97.74,57.23 98.14,57.16 98.53,57.11 98.92,57.06 99.32,57.01 99.71,56.94 100.11,56.87 100.5,56.81 100.9,56.76 101.29,56.71 101.69,56.66 102.08,56.63 102.48,56.6 102.87,56.57 103.27,56.54 103.66,56.5 104.06,56.47 104.45,56.44 104.85,56.41 105.24,56.38 105.64,56.34 106.03,56.3 106.43,56.26 106.82,56.2 107.22,56.16 107.61,56.13 108.01,56.1 108.4,56.08 108.8,56.04 109.19,56.01 109.59,55.97 109.98,55.94 110.38,55.9 110.77,55.88 111.17,55.87 111.56,55.86 111.96,55.82 112.35,55.78 112.75,55.76 113.14,55.74 113.54,55.73 113.93,55.72 114.33,55.7 114.72,55.68 115.12,55.66 115.51,55.65 115.91,55.63 116.3,55.6 116.7,55.58 117.09,55.55 117.49,55.52 117.88,55.49 118.28,55.48 118.67,55.47 119.07,55.45 119.46,55.44 119.86,55.43 120.25,55.4 120.65,55.38 121.04,55.36 121.44,55.34 121.83,55.32 122.23,55.31 122.62,55.31 123.02,55.32 123.41,55.32 123.81,55.3 124.2,55.26 124.6,55.23 124.99,55.21 125.39,55.2 125.78,55.19 126.18,55.18 126.57,55.17 126.97,55.16 127.36,55.16 127.76,55.14 128.15,55.13 128.55,55.12 128.94,55.1 129.34,55.09 129.73,55.07 130.13,55.04 130.52,55.03 130.92,55.02 131.31,55.02 131.71,55.02 132.1,55.02 132.5,55 132.89,54.99 133.29,54.98 133.68,54.98 134.08,54.97 134.47,54.95 134.87,54.93 135.26,54.92 135.66,54.91 136.05,54.91 136.45,54.9 136.84,54.89 137.24,54.88 137.63,54.87 138.03,54.86 138.42,54.86 138.81,54.85 139.21,54.84 139.6,54.82 140,54.81 140.39,54.8 140.79,54.79 141.18,54.78 141.58,54.77 141.97,54.77 142.37,54.77 142.76,54.77 143.16,54.77 143.55,54.77 143.95,54.77 144.34,54.77 144.74,54.77 145.13,54.76 145.53,54.74 145.92,54.73 146.32,54.71 146.71,54.7 147.11,54.69 147.5,54.68 147.9,54.68 148.29,54.67 148.69,54.65 149.08,54.64 149.48,54.64 149.87,54.64 150.27,54.64 150.66,54.63 151.06,54.62 151.45,54.61 151.85,54.61 152.24,54.61 152.64,54.61 153.03,54.61 153.43,54.61 153.82,54.61 154.22,54.6 154.61,54.6 155.01,54.61 155.4,54.61 155.8,54.6 156.19,54.58 156.59,54.58 156.98,54.58 157.38,54.57 157.77,54.56 158.17,54.55 158.56,54.55 158.96,54.55 159.35,54.55 159.75,54.55 160.14,54.55 160.54,54.53 160.93,54.52 161.33,54.5 161.72,54.5 162.12,54.5 162.51,54.49 162.91,54.49 163.3,54.49 163.7,54.5 164.09,54.5 164.49,54.51 164.88,54.5 165.28,54.49 165.67,54.48 166.07,54.48 166.46,54.47 166.86,54.46 167.25,54.45 167.65,54.45 168.04,54.46 168.44,54.47 168.83,54.47 169.23,54.46 169.62,54.46 170.02,54.45 170.41,54.44 170.81,54.44 171.2,54.44 171.6,54.44 171.99,54.44 172.39,54.44 172.78,54.42 173.18,54.41 173.57,54.41 173.97,54.41 174.36,54.42 174.76,54.42 175.15,54.41 175.55,54.4 175.94,54.39 176.34,54.39 176.73,54.38 177.13,54.39 177.52,54.39 177.91,54.4 178.31,54.39 178.7,54.39 179.1,54.39 179.49,54.38 179.89,54.37 180.28,54.36 180.68,54.36 181.07,54.35 181.47,54.35 181.86,54.35 182.26,54.35 182.65,54.35 183.05,54.36 183.44,54.36 183.84,54.35 184.23,54.33 184.63,54.32 185.02,54.32 185.42,54.32 185.81,54.33 186.21,54.33 186.6,54.33 187,54.33 187.39,54.33 187.79,54.33 188.18,54.32 188.58,54.32 188.97,54.32 189.37,54.32 189.76,54.32 190.16,54.32 190.55,54.31 190.95,54.31 191.34,54.31 191.74,54.31 192.13,54.31 192.53,54.31 192.92,54.31 193.32,54.31 193.71,54.3 194.11,54.3 194.5,54.3 194.9,54.29 195.29,54.29 195.69,54.28 196.08,54.27 196.48,54.27 196.87,54.27 197.27,54.28 197.66,54.28 198.06,54.28 198.45,54.27 198.85,54.27 199.24,54.26 199.64,54.26 200.03,54.27 200.43,54.27 200.82,54.27 201.22,54.27 201.61,54.27 202.01,54.27 202.4,54.27 202.8,54.26 203.19,54.26 203.59,54.26 203.98,54.25 204.38,54.25 204.77,54.24 205.17,54.24 205.56,54.24 205.96,54.24 206.35,54.23 206.75,54.22 207.14,54.22 207.54,54.23 207.93,54.24 208.33,54.24 208.72,54.23 209.12,54.23 209.51,54.22 209.91,54.22 210.3,54.22 210.7,54.23 211.09,54.23 211.49,54.23 211.88,54.23 212.28,54.23 212.67,54.23 213.07,54.22 213.46,54.21 213.86,54.2 214.25,54.21 214.65,54.22 215.04,54.22 215.44,54.21 215.83,54.21 216.23,54.2 216.62,54.2 217.02,54.21 217.41,54.21 217.8,54.21 218.2,54.2 218.59,54.2 218.99,54.19 219.38,54.19 219.78,54.19 220.17,54.19 220.57,54.19 220.96,54.19 221.36,54.19 221.75,54.19 222.15,54.19 222.54,54.18 222.94,54.18 223.33,54.18 223.73,54.18 224.12,54.19 224.52,54.19 224.91,54.19 225.31,54.19 225.7,54.19 226.1,54.18 226.49,54.18 226.89,54.18 227.28,54.19 227.68,54.18 228.07,54.18 228.47,54.17 228.86,54.17 229.26,54.17 229.65,54.17 230.05,54.17 230.44,54.17 230.84,54.17 231.23,54.17 231.63,54.17 232.02,54.17 232.42,54.17 232.81,54.17 233.21,54.16 233.6,54.16 234,54.16 234.39,54.16 234.79,54.16 235.18,54.16 235.58,54.17 235.97,54.17 236.37,54.17 236.76,54.17 237.16,54.16 237.55,54.15 237.95,54.14 238.34,54.14 238.74,54.14 239.13,54.14 239.53,54.15 239.92,54.15 240.32,54.15 240.71,54.15 241.11,54.15 241.5,54.15 241.9,54.14 242.29,54.14 242.69,54.13 243.08,54.13 243.48,54.13 243.87,54.13 244.27,54.14 244.66,54.14 245.06,54.14 245.45,54.14 245.85,54.14 246.24,54.14 246.64,54.14 247.03,54.13 247.43,54.12 247.82,54.12 248.22,54.12 248.61,54.13 249.01,54.14 249.4,54.13 249.8,54.13 250.19,54.13 250.59,54.12 250.98,54.12 251.38,54.13 251.77,54.13 252.17,54.14 252.56,54.14 252.96,54.13 253.35,54.12 253.75,54.11 254.14,54.11 254.54,54.11 254.93,54.11 255.33,54.12 255.72,54.12 256.12,54.11 256.51,54.11 256.9,54.1 257.3,54.1 257.69,54.11 258.09,54.11 258.48,54.11 258.88,54.11 259.27,54.09 259.67,54.06 260.06,54.02 260.46,53.99 260.85,53.97 261.25,53.97" stroke-dasharray="none" stroke="rgb(31,120,180)" stroke-width="0.75" opacity="1" stroke-opacity="1" fill="none"/>
          </g>
          <g id="Fig:densplot_01.xyplot.lines.group.6.panel.1.1.1">
            <polyline id="Fig:densplot_01.xyplot.lines.group.6.panel.1.1.1.1" points="59.83,53.97 60.23,54.18 60.62,56.76 61.01,71.61 61.41,112.63 61.8,170.18 62.19,209.09 62.59,213.21 62.98,197.51 63.37,178.98 63.77,163.08 64.16,150.19 64.55,140.13 64.95,132.15 65.34,125.36 65.74,119.25 66.13,113.84 66.52,109.2 66.92,105.13 67.31,101.42 67.7,97.97 68.1,94.83 68.49,92.09 68.88,89.71 69.28,87.45 69.67,85.24 70.07,83.21 70.46,81.46 70.85,80 71.25,78.58 71.64,77.11 72.03,75.82 72.43,74.72 72.82,73.75 73.21,72.8 73.61,71.78 74,70.84 74.4,70.03 74.79,69.32 75.18,68.56 75.58,67.82 75.97,67.25 76.36,66.76 76.76,66.25 77.15,65.68 77.54,65.12 77.94,64.66 78.33,64.29 78.73,63.97 79.12,63.59 79.51,63.17 79.91,62.79 80.3,62.5 80.69,62.24 81.09,61.94 81.48,61.65 81.87,61.37 82.27,61.16 82.66,60.98 83.06,60.75 83.45,60.5 83.84,60.3 84.24,60.15 84.63,60.01 85.02,59.85 85.42,59.66 85.81,59.52 86.2,59.4 86.6,59.24 86.99,59.05 87.38,58.89 87.78,58.75 88.17,58.63 88.57,58.52 88.96,58.4 89.35,58.28 89.75,58.19 90.14,58.12 90.53,58.03 90.93,57.91 91.32,57.79 91.71,57.7 92.11,57.63 92.5,57.55 92.9,57.44 93.29,57.34 93.68,57.25 94.08,57.21 94.47,57.18 94.86,57.12 95.26,57.04 95.65,56.96 96.04,56.92 96.44,56.86 96.83,56.78 97.23,56.71 97.62,56.68 98.01,56.65 98.41,56.59 98.8,56.51 99.19,56.46 99.59,56.45 99.98,56.46 100.37,56.43 100.77,56.37 101.16,56.31 101.56,56.25 101.95,56.21 102.34,56.16 102.74,56.11 103.13,56.08 103.52,56.06 103.92,56.05 104.31,56.01 104.7,55.96 105.1,55.93 105.49,55.92 105.89,55.9 106.28,55.87 106.67,55.82 107.07,55.79 107.46,55.75 107.85,55.72 108.25,55.69 108.64,55.67 109.03,55.66 109.43,55.66 109.82,55.63 110.22,55.59 110.61,55.56 111,55.55 111.4,55.53 111.79,55.51 112.18,55.51 112.58,55.48 112.97,55.45 113.36,55.45 113.76,55.43 114.15,55.39 114.54,55.36 114.94,55.35 115.33,55.32 115.73,55.29 116.12,55.28 116.51,55.26 116.91,55.24 117.3,55.21 117.69,55.2 118.09,55.2 118.48,55.2 118.87,55.2 119.27,55.18 119.66,55.15 120.06,55.11 120.45,55.09 120.84,55.09 121.24,55.08 121.63,55.07 122.02,55.05 122.42,55.04 122.81,55.02 123.2,55 123.6,54.98 123.99,54.98 124.39,54.98 124.78,54.97 125.17,54.97 125.57,54.96 125.96,54.94 126.35,54.92 126.75,54.91 127.14,54.9 127.53,54.88 127.93,54.88 128.32,54.89 128.72,54.88 129.11,54.87 129.5,54.86 129.9,54.85 130.29,54.84 130.68,54.83 131.08,54.81 131.47,54.79 131.86,54.78 132.26,54.78 132.65,54.78 133.05,54.75 133.44,54.73 133.83,54.73 134.23,54.73 134.62,54.73 135.01,54.73 135.41,54.71 135.8,54.7 136.19,54.71 136.59,54.71 136.98,54.69 137.38,54.68 137.77,54.68 138.16,54.68 138.56,54.66 138.95,54.65 139.34,54.65 139.74,54.66 140.13,54.66 140.52,54.65 140.92,54.64 141.31,54.63 141.7,54.61 142.1,54.6 142.49,54.6 142.89,54.6 143.28,54.6 143.67,54.59 144.07,54.58 144.46,54.57 144.85,54.56 145.25,54.55 145.64,54.56 146.03,54.56 146.43,54.55 146.82,54.54 147.22,54.53 147.61,54.53 148,54.53 148.4,54.53 148.79,54.51 149.18,54.5 149.58,54.5 149.97,54.51 150.36,54.49 150.76,54.47 151.15,54.46 151.55,54.46 151.94,54.46 152.33,54.47 152.73,54.47 153.12,54.47 153.51,54.47 153.91,54.46 154.3,54.46 154.69,54.46 155.09,54.47 155.48,54.47 155.88,54.46 156.27,54.46 156.66,54.46 157.06,54.45 157.45,54.43 157.84,54.41 158.24,54.41 158.63,54.4 159.02,54.41 159.42,54.41 159.81,54.4 160.21,54.41 160.6,54.41 160.99,54.42 161.39,54.42 161.78,54.4 162.17,54.38 162.57,54.37 162.96,54.37 163.35,54.36 163.75,54.37 164.14,54.38 164.53,54.39 164.93,54.39 165.32,54.38 165.72,54.36 166.11,54.35 166.5,54.34 166.9,54.34 167.29,54.35 167.68,54.35 168.08,54.34 168.47,54.34 168.86,54.34 169.26,54.33 169.65,54.33 170.05,54.33 170.44,54.33 170.83,54.33 171.23,54.32 171.62,54.32 172.01,54.31 172.41,54.31 172.8,54.31 173.19,54.3 173.59,54.29 173.98,54.29 174.38,54.29 174.77,54.3 175.16,54.3 175.56,54.29 175.95,54.28 176.34,54.27 176.74,54.28 177.13,54.29 177.52,54.29 177.92,54.29 178.31,54.29 178.71,54.28 179.1,54.27 179.49,54.27 179.89,54.27 180.28,54.27 180.67,54.26 181.07,54.25 181.46,54.26 181.85,54.27 182.25,54.27 182.64,54.27 183.04,54.26 183.43,54.25 183.82,54.25 184.22,54.25 184.61,54.25 185,54.25 185.4,54.25 185.79,54.25 186.18,54.24 186.58,54.24 186.97,54.24 187.37,54.23 187.76,54.23 188.15,54.24 188.55,54.24 188.94,54.24 189.33,54.24 189.73,54.23 190.12,54.22 190.51,54.22 190.91,54.23 191.3,54.23 191.69,54.23 192.09,54.22 192.48,54.21 192.88,54.2 193.27,54.2 193.66,54.19 194.06,54.19 194.45,54.2 194.84,54.2 195.24,54.21 195.63,54.21 196.02,54.2 196.42,54.2 196.81,54.19 197.21,54.2 197.6,54.21 197.99,54.2 198.39,54.19 198.78,54.18 199.17,54.18 199.57,54.18 199.96,54.18 200.35,54.19 200.75,54.2 201.14,54.19 201.54,54.18 201.93,54.17 202.32,54.17 202.72,54.17 203.11,54.17 203.5,54.18 203.9,54.18 204.29,54.18 204.68,54.18 205.08,54.18 205.47,54.17 205.87,54.16 206.26,54.16 206.65,54.16 207.05,54.16 207.44,54.16 207.83,54.16 208.23,54.17 208.62,54.18 209.01,54.18 209.41,54.18 209.8,54.17 210.2,54.16 210.59,54.15 210.98,54.15 211.38,54.15 211.77,54.15 212.16,54.15 212.56,54.15 212.95,54.15 213.34,54.15 213.74,54.14 214.13,54.14 214.53,54.15 214.92,54.14 215.31,54.14 215.71,54.14 216.1,54.14 216.49,54.13 216.89,54.14 217.28,54.14 217.67,54.14 218.07,54.14 218.46,54.15 218.85,54.14 219.25,54.14 219.64,54.14 220.04,54.13 220.43,54.13 220.82,54.14 221.22,54.14 221.61,54.14 222,54.13 222.4,54.14 222.79,54.14 223.18,54.13 223.58,54.12 223.97,54.12 224.37,54.12 224.76,54.13 225.15,54.13 225.55,54.13 225.94,54.12 226.33,54.11 226.73,54.11 227.12,54.11 227.51,54.11 227.91,54.11 228.3,54.11 228.7,54.11 229.09,54.11 229.48,54.11 229.88,54.11 230.27,54.12 230.66,54.11 231.06,54.11 231.45,54.11 231.84,54.11 232.24,54.1 232.63,54.1 233.03,54.1 233.42,54.1 233.81,54.09 234.21,54.1 234.6,54.11 234.99,54.11 235.39,54.1 235.78,54.11 236.17,54.11 236.57,54.11 236.96,54.1 237.36,54.1 237.75,54.09 238.14,54.09 238.54,54.09 238.93,54.09 239.32,54.08 239.72,54.09 240.11,54.09 240.5,54.1 240.9,54.1 241.29,54.09 241.68,54.09 242.08,54.09 242.47,54.09 242.87,54.08 243.26,54.08 243.65,54.09 244.05,54.1 244.44,54.09 244.83,54.09 245.23,54.09 245.62,54.09 246.01,54.08 246.41,54.08 246.8,54.08 247.2,54.09 247.59,54.09 247.98,54.1 248.38,54.1 248.77,54.09 249.16,54.08 249.56,54.08 249.95,54.08 250.34,54.08 250.74,54.09 251.13,54.09 251.53,54.08 251.92,54.08 252.31,54.07 252.71,54.07 253.1,54.08 253.49,54.09 253.89,54.09 254.28,54.09 254.67,54.08 255.07,54.07 255.46,54.07 255.86,54.07 256.25,54.07 256.64,54.07 257.04,54.07 257.43,54.08 257.82,54.08 258.22,54.08 258.61,54.07 259,54.06 259.4,54.05 259.79,54.01 260.19,53.99 260.58,53.97 260.97,53.97" stroke-dasharray="none" stroke="rgb(31,120,180)" stroke-width="0.75" opacity="1" stroke-opacity="1" fill="none"/>
          </g>
          <g id="Fig:densplot_01.xyplot.lines.group.7.panel.1.1.1">
            <polyline id="Fig:densplot_01.xyplot.lines.group.7.panel.1.1.1.1" points="59.77,53.97 60.16,54.08 60.55,55.6 60.95,65.67 61.34,99.31 61.73,156.45 62.13,204.42 62.52,217.9 62.92,205.32 63.31,185.39 63.7,166.9 64.1,151.71 64.49,140.15 64.89,131.44 65.28,124.4 65.67,118.22 66.07,112.73 66.46,108 66.86,103.97 67.25,100.41 67.64,96.97 68.04,93.74 68.43,91.03 68.82,88.82 69.22,86.79 69.61,84.76 70.01,82.79 70.4,81.08 70.79,79.63 71.19,78.28 71.58,76.98 71.98,75.8 72.37,74.76 72.76,73.83 73.16,72.87 73.55,71.87 73.95,70.95 74.34,70.16 74.73,69.42 75.13,68.7 75.52,68.03 75.91,67.42 76.31,66.86 76.7,66.35 77.1,65.84 77.49,65.32 77.88,64.91 78.28,64.58 78.67,64.22 79.07,63.8 79.46,63.39 79.85,63.04 80.25,62.75 80.64,62.46 81.03,62.13 81.43,61.87 81.82,61.7 82.22,61.5 82.61,61.24 83,60.98 83.4,60.78 83.79,60.61 84.19,60.42 84.58,60.24 84.97,60.09 85.37,59.94 85.76,59.76 86.16,59.57 86.55,59.38 86.94,59.23 87.34,59.12 87.73,59.03 88.12,58.93 88.52,58.79 88.91,58.64 89.31,58.5 89.7,58.39 90.09,58.28 90.49,58.17 90.88,58.06 91.28,57.98 91.67,57.9 92.06,57.8 92.46,57.74 92.85,57.69 93.25,57.62 93.64,57.52 94.03,57.41 94.43,57.34 94.82,57.28 95.21,57.24 95.61,57.19 96,57.14 96.4,57.08 96.79,57.02 97.18,56.95 97.58,56.89 97.97,56.81 98.37,56.74 98.76,56.7 99.15,56.68 99.55,56.64 99.94,56.57 100.34,56.51 100.73,56.46 101.12,56.42 101.52,56.37 101.91,56.31 102.3,56.27 102.7,56.24 103.09,56.21 103.49,56.16 103.88,56.11 104.27,56.07 104.67,56.07 105.06,56.06 105.46,56.01 105.85,55.97 106.24,55.94 106.64,55.93 107.03,55.92 107.42,55.89 107.82,55.85 108.21,55.83 108.61,55.81 109,55.78 109.39,55.75 109.79,55.71 110.18,55.66 110.58,55.63 110.97,55.62 111.36,55.63 111.76,55.62 112.15,55.6 112.55,55.57 112.94,55.54 113.33,55.53 113.73,55.52 114.12,55.49 114.51,55.45 114.91,55.41 115.3,55.39 115.7,55.38 116.09,55.39 116.48,55.39 116.88,55.36 117.27,55.33 117.67,55.31 118.06,55.29 118.45,55.27 118.85,55.25 119.24,55.22 119.64,55.19 120.03,55.18 120.42,55.17 120.82,55.16 121.21,55.16 121.6,55.15 122,55.13 122.39,55.11 122.79,55.09 123.18,55.08 123.57,55.07 123.97,55.04 124.36,55.02 124.76,55.01 125.15,55 125.54,54.99 125.94,54.98 126.33,54.99 126.73,54.99 127.12,54.97 127.51,54.96 127.91,54.95 128.3,54.93 128.69,54.9 129.09,54.88 129.48,54.87 129.88,54.87 130.27,54.86 130.66,54.86 131.06,54.85 131.45,54.84 131.85,54.84 132.24,54.83 132.63,54.83 133.03,54.84 133.42,54.84 133.81,54.83 134.21,54.81 134.6,54.78 135,54.76 135.39,54.76 135.78,54.74 136.18,54.73 136.57,54.72 136.97,54.72 137.36,54.71 137.75,54.71 138.15,54.72 138.54,54.72 138.94,54.71 139.33,54.7 139.72,54.69 140.12,54.69 140.51,54.68 140.9,54.67 141.3,54.66 141.69,54.66 142.09,54.67 142.48,54.66 142.87,54.65 143.27,54.63 143.66,54.62 144.06,54.61 144.45,54.6 144.84,54.59 145.24,54.59 145.63,54.6 146.03,54.6 146.42,54.59 146.81,54.58 147.21,54.57 147.6,54.56 147.99,54.56 148.39,54.56 148.78,54.56 149.18,54.57 149.57,54.57 149.96,54.55 150.36,54.53 150.75,54.51 151.15,54.5 151.54,54.49 151.93,54.48 152.33,54.48 152.72,54.49 153.12,54.49 153.51,54.5 153.9,54.49 154.3,54.48 154.69,54.48 155.08,54.48 155.48,54.48 155.87,54.47 156.27,54.47 156.66,54.46 157.05,54.46 157.45,54.45 157.84,54.44 158.24,54.42 158.63,54.42 159.02,54.43 159.42,54.43 159.81,54.43 160.2,54.43 160.6,54.43 160.99,54.44 161.39,54.43 161.78,54.42 162.17,54.41 162.57,54.4 162.96,54.4 163.36,54.4 163.75,54.4 164.14,54.39 164.54,54.38 164.93,54.38 165.33,54.38 165.72,54.38 166.11,54.39 166.51,54.38 166.9,54.38 167.29,54.37 167.69,54.36 168.08,54.36 168.48,54.36 168.87,54.36 169.26,54.36 169.66,54.35 170.05,54.34 170.45,54.34 170.84,54.33 171.23,54.33 171.63,54.33 172.02,54.33 172.42,54.33 172.81,54.34 173.2,54.33 173.6,54.33 173.99,54.32 174.38,54.32 174.78,54.32 175.17,54.32 175.57,54.31 175.96,54.3 176.35,54.29 176.75,54.3 177.14,54.3 177.54,54.3 177.93,54.31 178.32,54.32 178.72,54.32 179.11,54.3 179.51,54.29 179.9,54.29 180.29,54.29 180.69,54.29 181.08,54.28 181.47,54.27 181.87,54.27 182.26,54.27 182.66,54.27 183.05,54.26 183.44,54.27 183.84,54.28 184.23,54.27 184.63,54.26 185.02,54.25 185.41,54.26 185.81,54.26 186.2,54.26 186.59,54.26 186.99,54.27 187.38,54.27 187.78,54.26 188.17,54.26 188.56,54.25 188.96,54.25 189.35,54.25 189.75,54.24 190.14,54.24 190.53,54.25 190.93,54.25 191.32,54.24 191.72,54.23 192.11,54.22 192.5,54.22 192.9,54.23 193.29,54.23 193.68,54.22 194.08,54.21 194.47,54.21 194.87,54.21 195.26,54.21 195.65,54.21 196.05,54.21 196.44,54.21 196.84,54.21 197.23,54.21 197.62,54.22 198.02,54.23 198.41,54.22 198.81,54.21 199.2,54.2 199.59,54.19 199.99,54.19 200.38,54.19 200.77,54.19 201.17,54.19 201.56,54.19 201.96,54.19 202.35,54.19 202.74,54.19 203.14,54.19 203.53,54.19 203.93,54.19 204.32,54.19 204.71,54.19 205.11,54.19 205.5,54.19 205.9,54.19 206.29,54.19 206.68,54.19 207.08,54.18 207.47,54.18 207.86,54.17 208.26,54.16 208.65,54.17 209.05,54.17 209.44,54.17 209.83,54.17 210.23,54.16 210.62,54.16 211.02,54.16 211.41,54.17 211.8,54.17 212.2,54.16 212.59,54.16 212.98,54.16 213.38,54.16 213.77,54.15 214.17,54.15 214.56,54.16 214.95,54.16 215.35,54.15 215.74,54.15 216.14,54.15 216.53,54.16 216.92,54.15 217.32,54.15 217.71,54.15 218.11,54.15 218.5,54.14 218.89,54.14 219.29,54.15 219.68,54.15 220.07,54.15 220.47,54.15 220.86,54.15 221.26,54.15 221.65,54.14 222.04,54.15 222.44,54.15 222.83,54.16 223.23,54.16 223.62,54.15 224.01,54.14 224.41,54.14 224.8,54.13 225.2,54.13 225.59,54.12 225.98,54.12 226.38,54.12 226.77,54.13 227.16,54.13 227.56,54.13 227.95,54.13 228.35,54.13 228.74,54.13 229.13,54.13 229.53,54.13 229.92,54.13 230.32,54.13 230.71,54.12 231.1,54.12 231.5,54.12 231.89,54.12 232.29,54.12 232.68,54.11 233.07,54.11 233.47,54.11 233.86,54.11 234.25,54.11 234.65,54.11 235.04,54.11 235.44,54.11 235.83,54.1 236.22,54.11 236.62,54.11 237.01,54.11 237.41,54.11 237.8,54.1 238.19,54.11 238.59,54.11 238.98,54.11 239.37,54.1 239.77,54.1 240.16,54.11 240.56,54.11 240.95,54.11 241.34,54.11 241.74,54.1 242.13,54.1 242.53,54.1 242.92,54.1 243.31,54.1 243.71,54.1 244.1,54.1 244.5,54.1 244.89,54.1 245.28,54.1 245.68,54.09 246.07,54.09 246.46,54.09 246.86,54.09 247.25,54.09 247.65,54.1 248.04,54.1 248.43,54.09 248.83,54.09 249.22,54.09 249.62,54.09 250.01,54.09 250.4,54.09 250.8,54.08 251.19,54.08 251.59,54.08 251.98,54.09 252.37,54.09 252.77,54.09 253.16,54.09 253.55,54.09 253.95,54.09 254.34,54.09 254.74,54.09 255.13,54.09 255.52,54.08 255.92,54.08 256.31,54.07 256.71,54.07 257.1,54.07 257.49,54.08 257.89,54.08 258.28,54.08 258.68,54.09 259.07,54.08 259.46,54.07 259.86,54.03 260.25,53.99 260.64,53.97 261.04,53.97" stroke-dasharray="none" stroke="rgb(31,120,180)" stroke-width="0.75" opacity="1" stroke-opacity="1" fill="none"/>
          </g>
          <g id="Fig:densplot_01.xyplot.lines.group.8.panel.1.1.1">
            <polyline id="Fig:densplot_01.xyplot.lines.group.8.panel.1.1.1.1" points="59.64,53.97 60.03,54.01 60.43,54.38 60.82,56.59 61.22,64.64 61.61,82.99 62.01,109.51 62.4,133.74 62.8,146.98 63.19,150.05 63.59,148.62 63.98,146.3 64.38,143.89 64.77,141.33 65.16,138.53 65.56,135.29 65.95,131.34 66.35,126.79 66.74,122.02 67.14,117.24 67.53,112.43 67.93,107.68 68.32,103.26 68.72,99.39 69.11,96.03 69.51,92.99 69.9,90.22 70.29,87.87 70.69,85.93 71.08,84.17 71.48,82.44 71.87,80.86 72.27,79.53 72.66,78.35 73.06,77.2 73.45,76.1 73.85,75.15 74.24,74.3 74.64,73.43 75.03,72.51 75.42,71.69 75.82,71.03 76.21,70.44 76.61,69.81 77,69.2 77.4,68.64 77.79,68.12 78.19,67.58 78.58,67.05 78.98,66.56 79.37,66.12 79.77,65.68 80.16,65.25 80.55,64.85 80.95,64.52 81.34,64.22 81.74,63.9 82.13,63.57 82.53,63.29 82.92,63.04 83.32,62.78 83.71,62.48 84.11,62.17 84.5,61.89 84.9,61.65 85.29,61.43 85.68,61.21 86.08,61.01 86.47,60.84 86.87,60.66 87.26,60.47 87.66,60.28 88.05,60.11 88.45,59.97 88.84,59.84 89.24,59.72 89.63,59.6 90.03,59.5 90.42,59.41 90.81,59.29 91.21,59.16 91.6,59.03 92,58.89 92.39,58.74 92.79,58.61 93.18,58.5 93.58,58.42 93.97,58.33 94.37,58.22 94.76,58.12 95.16,58.05 95.55,58.01 95.94,57.95 96.34,57.88 96.73,57.8 97.13,57.71 97.52,57.62 97.92,57.53 98.31,57.45 98.71,57.4 99.1,57.35 99.5,57.28 99.89,57.21 100.29,57.15 100.68,57.09 101.07,57.03 101.47,56.96 101.86,56.9 102.26,56.86 102.65,56.81 103.05,56.75 103.44,56.7 103.84,56.65 104.23,56.62 104.63,56.57 105.02,56.53 105.42,56.5 105.81,56.47 106.2,56.43 106.6,56.38 106.99,56.34 107.39,56.31 107.78,56.27 108.18,56.23 108.57,56.2 108.97,56.16 109.36,56.13 109.76,56.09 110.15,56.06 110.55,56.02 110.94,56 111.33,55.97 111.73,55.93 112.12,55.88 112.52,55.85 112.91,55.85 113.31,55.84 113.7,55.82 114.1,55.79 114.49,55.77 114.89,55.75 115.28,55.73 115.68,55.7 116.07,55.68 116.46,55.67 116.86,55.64 117.25,55.61 117.65,55.57 118.04,55.54 118.44,55.52 118.83,55.51 119.23,55.5 119.62,55.49 120.02,55.46 120.41,55.43 120.81,55.39 121.2,55.38 121.59,55.39 121.99,55.39 122.38,55.38 122.78,55.36 123.17,55.34 123.57,55.32 123.96,55.31 124.36,55.3 124.75,55.29 125.15,55.28 125.54,55.26 125.94,55.24 126.33,55.21 126.72,55.18 127.12,55.16 127.51,55.14 127.91,55.14 128.3,55.13 128.7,55.13 129.09,55.12 129.49,55.1 129.88,55.09 130.28,55.08 130.67,55.07 131.07,55.05 131.46,55.03 131.85,55.02 132.25,55.01 132.64,54.99 133.04,54.98 133.43,54.98 133.83,54.98 134.22,54.98 134.62,54.96 135.01,54.94 135.41,54.93 135.8,54.92 136.2,54.9 136.59,54.89 136.98,54.88 137.38,54.88 137.77,54.88 138.17,54.87 138.56,54.86 138.96,54.85 139.35,54.85 139.75,54.85 140.14,54.84 140.54,54.81 140.93,54.79 141.33,54.78 141.72,54.78 142.11,54.79 142.51,54.79 142.9,54.79 143.3,54.77 143.69,54.75 144.09,54.74 144.48,54.74 144.88,54.74 145.27,54.74 145.67,54.72 146.06,54.71 146.46,54.69 146.85,54.68 147.24,54.68 147.64,54.69 148.03,54.69 148.43,54.7 148.82,54.7 149.22,54.7 149.61,54.69 150.01,54.68 150.4,54.66 150.8,54.63 151.19,54.63 151.59,54.64 151.98,54.64 152.37,54.63 152.77,54.61 153.16,54.59 153.56,54.59 153.95,54.58 154.35,54.58 154.74,54.58 155.14,54.58 155.53,54.58 155.93,54.57 156.32,54.56 156.72,54.55 157.11,54.55 157.5,54.55 157.9,54.55 158.29,54.55 158.69,54.54 159.08,54.53 159.48,54.52 159.87,54.52 160.27,54.52 160.66,54.51 161.06,54.51 161.45,54.5 161.85,54.5 162.24,54.5 162.63,54.49 163.03,54.48 163.42,54.49 163.82,54.5 164.21,54.49 164.61,54.48 165,54.46 165.4,54.45 165.79,54.44 166.19,54.44 166.58,54.45 166.98,54.46 167.37,54.46 167.76,54.45 168.16,54.44 168.55,54.44 168.95,54.44 169.34,54.44 169.74,54.44 170.13,54.43 170.53,54.42 170.92,54.41 171.32,54.4 171.71,54.39 172.11,54.4 172.5,54.41 172.89,54.41 173.29,54.42 173.68,54.42 174.08,54.42 174.47,54.41 174.87,54.4 175.26,54.39 175.66,54.39 176.05,54.39 176.45,54.39 176.84,54.38 177.24,54.37 177.63,54.36 178.02,54.36 178.42,54.36 178.81,54.36 179.21,54.36 179.6,54.36 180,54.35 180.39,54.35 180.79,54.35 181.18,54.36 181.58,54.37 181.97,54.36 182.37,54.35 182.76,54.34 183.15,54.34 183.55,54.34 183.94,54.34 184.34,54.33 184.73,54.33 185.13,54.33 185.52,54.32 185.92,54.32 186.31,54.32 186.71,54.32 187.1,54.32 187.5,54.31 187.89,54.31 188.28,54.31 188.68,54.31 189.07,54.3 189.47,54.29 189.86,54.29 190.26,54.28 190.65,54.28 191.05,54.29 191.44,54.29 191.84,54.29 192.23,54.29 192.63,54.29 193.02,54.29 193.41,54.28 193.81,54.28 194.2,54.28 194.6,54.28 194.99,54.27 195.39,54.27 195.78,54.27 196.18,54.27 196.57,54.27 196.97,54.26 197.36,54.26 197.76,54.26 198.15,54.26 198.54,54.26 198.94,54.25 199.33,54.24 199.73,54.24 200.12,54.25 200.52,54.26 200.91,54.26 201.31,54.25 201.7,54.24 202.1,54.24 202.49,54.24 202.89,54.24 203.28,54.24 203.67,54.24 204.07,54.24 204.46,54.24 204.86,54.24 205.25,54.23 205.65,54.23 206.04,54.23 206.44,54.22 206.83,54.22 207.23,54.22 207.62,54.22 208.02,54.23 208.41,54.23 208.8,54.22 209.2,54.22 209.59,54.22 209.99,54.22 210.38,54.22 210.78,54.22 211.17,54.22 211.57,54.21 211.96,54.21 212.36,54.2 212.75,54.2 213.15,54.2 213.54,54.2 213.93,54.2 214.33,54.2 214.72,54.2 215.12,54.2 215.51,54.19 215.91,54.19 216.3,54.2 216.7,54.21 217.09,54.21 217.49,54.21 217.88,54.2 218.28,54.2 218.67,54.2 219.06,54.2 219.46,54.19 219.85,54.18 220.25,54.17 220.64,54.17 221.04,54.17 221.43,54.17 221.83,54.17 222.22,54.17 222.62,54.17 223.01,54.16 223.41,54.16 223.8,54.17 224.19,54.17 224.59,54.18 224.98,54.18 225.38,54.17 225.77,54.16 226.17,54.16 226.56,54.16 226.96,54.16 227.35,54.16 227.75,54.16 228.14,54.16 228.54,54.16 228.93,54.16 229.32,54.16 229.72,54.16 230.11,54.16 230.51,54.16 230.9,54.16 231.3,54.15 231.69,54.15 232.09,54.15 232.48,54.15 232.88,54.15 233.27,54.14 233.67,54.14 234.06,54.14 234.45,54.14 234.85,54.14 235.24,54.14 235.64,54.14 236.03,54.14 236.43,54.14 236.82,54.14 237.22,54.14 237.61,54.14 238.01,54.14 238.4,54.14 238.8,54.14 239.19,54.14 239.58,54.14 239.98,54.14 240.37,54.14 240.77,54.14 241.16,54.13 241.56,54.13 241.95,54.13 242.35,54.12 242.74,54.12 243.14,54.12 243.53,54.12 243.93,54.12 244.32,54.12 244.71,54.12 245.11,54.13 245.5,54.12 245.9,54.12 246.29,54.12 246.69,54.11 247.08,54.11 247.48,54.11 247.87,54.11 248.27,54.11 248.66,54.12 249.06,54.12 249.45,54.11 249.84,54.11 250.24,54.11 250.63,54.11 251.03,54.11 251.42,54.11 251.82,54.11 252.21,54.12 252.61,54.12 253,54.12 253.4,54.11 253.79,54.11 254.19,54.1 254.58,54.1 254.97,54.1 255.37,54.1 255.76,54.1 256.16,54.1 256.55,54.11 256.95,54.11 257.34,54.11 257.74,54.1 258.13,54.1 258.53,54.1 258.92,54.1 259.32,54.08 259.71,54.05 260.1,54.01 260.5,53.98 260.89,53.97 261.29,53.97" stroke-dasharray="none" stroke="rgb(31,120,180)" stroke-width="0.75" opacity="1" stroke-opacity="1" fill="none"/>
          </g>
          <g id="Fig:densplot_01.xyplot.lines.group.9.panel.1.1.1">
            <polyline id="Fig:densplot_01.xyplot.lines.group.9.panel.1.1.1.1" points="59.66,53.97 60.05,54.04 60.45,54.56 60.84,57.7 61.24,69.3 61.63,96.11 62.03,134.6 62.42,167.64 62.82,181.22 63.21,177.09 63.61,164.87 64,151.63 64.4,140.36 64.79,131.59 65.19,124.7 65.58,118.93 65.98,113.99 66.37,109.86 66.77,106.37 67.16,103.21 67.55,100.17 67.95,97.37 68.34,94.91 68.74,92.72 69.13,90.65 69.53,88.7 69.92,86.96 70.32,85.38 70.71,83.85 71.11,82.37 71.5,81.01 71.9,79.79 72.29,78.64 72.69,77.52 73.08,76.44 73.48,75.43 73.87,74.5 74.27,73.63 74.66,72.78 75.06,71.99 75.45,71.29 75.85,70.64 76.24,70.01 76.63,69.4 77.03,68.81 77.42,68.24 77.82,67.71 78.21,67.23 78.61,66.81 79,66.42 79.4,66.01 79.79,65.58 80.19,65.19 80.58,64.84 80.98,64.48 81.37,64.12 81.77,63.79 82.16,63.48 82.56,63.19 82.95,62.89 83.35,62.61 83.74,62.39 84.14,62.2 84.53,61.98 84.93,61.75 85.32,61.51 85.71,61.3 86.11,61.09 86.5,60.9 86.9,60.72 87.29,60.57 87.69,60.42 88.08,60.26 88.48,60.1 88.87,59.95 89.27,59.79 89.66,59.62 90.06,59.46 90.45,59.34 90.85,59.24 91.24,59.14 91.64,59.02 92.03,58.89 92.43,58.76 92.82,58.64 93.22,58.52 93.61,58.42 94.01,58.35 94.4,58.3 94.79,58.23 95.19,58.15 95.58,58.06 95.98,57.97 96.37,57.87 96.77,57.79 97.16,57.71 97.56,57.63 97.95,57.55 98.35,57.48 98.74,57.42 99.14,57.38 99.53,57.32 99.93,57.26 100.32,57.19 100.72,57.13 101.11,57.08 101.51,57.03 101.9,57 102.3,56.98 102.69,56.95 103.09,56.9 103.48,56.83 103.87,56.77 104.27,56.73 104.66,56.69 105.06,56.64 105.45,56.58 105.85,56.52 106.24,56.48 106.64,56.44 107.03,56.39 107.43,56.36 107.82,56.35 108.22,56.33 108.61,56.3 109.01,56.26 109.4,56.22 109.8,56.19 110.19,56.15 110.59,56.1 110.98,56.05 111.38,56.01 111.77,55.98 112.17,55.96 112.56,55.93 112.95,55.91 113.35,55.89 113.74,55.87 114.14,55.86 114.53,55.84 114.93,55.82 115.32,55.79 115.72,55.76 116.11,55.73 116.51,55.71 116.9,55.69 117.3,55.68 117.69,55.66 118.09,55.64 118.48,55.62 118.88,55.59 119.27,55.57 119.67,55.55 120.06,55.54 120.46,55.52 120.85,55.5 121.25,55.47 121.64,55.44 122.03,55.42 122.43,55.4 122.82,55.38 123.22,55.36 123.61,55.34 124.01,55.32 124.4,55.31 124.8,55.31 125.19,55.3 125.59,55.28 125.98,55.26 126.38,55.24 126.77,55.22 127.17,55.21 127.56,55.21 127.96,55.2 128.35,55.2 128.75,55.19 129.14,55.18 129.54,55.17 129.93,55.16 130.33,55.15 130.72,55.13 131.12,55.12 131.51,55.1 131.9,55.1 132.3,55.09 132.69,55.07 133.09,55.05 133.48,55.03 133.88,55.03 134.27,55.02 134.67,55.03 135.06,55.03 135.46,55.02 135.85,54.99 136.25,54.95 136.64,54.93 137.04,54.93 137.43,54.94 137.83,54.93 138.22,54.91 138.62,54.9 139.01,54.89 139.41,54.88 139.8,54.88 140.2,54.88 140.59,54.87 140.98,54.86 141.38,54.84 141.77,54.83 142.17,54.82 142.56,54.82 142.96,54.82 143.35,54.81 143.75,54.8 144.14,54.8 144.54,54.8 144.93,54.78 145.33,54.76 145.72,54.75 146.12,54.74 146.51,54.72 146.91,54.72 147.3,54.71 147.7,54.71 148.09,54.71 148.49,54.71 148.88,54.71 149.28,54.71 149.67,54.71 150.06,54.69 150.46,54.69 150.85,54.68 151.25,54.67 151.64,54.65 152.04,54.64 152.43,54.64 152.83,54.64 153.22,54.64 153.62,54.65 154.01,54.66 154.41,54.65 154.8,54.64 155.2,54.62 155.59,54.61 155.99,54.61 156.38,54.61 156.78,54.6 157.17,54.59 157.57,54.59 157.96,54.59 158.36,54.59 158.75,54.59 159.14,54.58 159.54,54.56 159.93,54.55 160.33,54.55 160.72,54.55 161.12,54.56 161.51,54.56 161.91,54.55 162.3,54.54 162.7,54.53 163.09,54.52 163.49,54.51 163.88,54.51 164.28,54.51 164.67,54.51 165.07,54.5 165.46,54.5 165.86,54.49 166.25,54.49 166.65,54.49 167.04,54.48 167.44,54.48 167.83,54.47 168.22,54.47 168.62,54.47 169.01,54.47 169.41,54.47 169.8,54.46 170.2,54.45 170.59,54.44 170.99,54.44 171.38,54.44 171.78,54.43 172.17,54.42 172.57,54.42 172.96,54.42 173.36,54.42 173.75,54.42 174.15,54.43 174.54,54.43 174.94,54.43 175.33,54.43 175.73,54.42 176.12,54.41 176.52,54.4 176.91,54.39 177.3,54.38 177.7,54.38 178.09,54.38 178.49,54.38 178.88,54.38 179.28,54.38 179.67,54.38 180.07,54.38 180.46,54.38 180.86,54.37 181.25,54.36 181.65,54.36 182.04,54.36 182.44,54.36 182.83,54.36 183.23,54.36 183.62,54.36 184.02,54.37 184.41,54.36 184.81,54.36 185.2,54.36 185.6,54.36 185.99,54.36 186.38,54.35 186.78,54.34 187.17,54.33 187.57,54.32 187.96,54.32 188.36,54.32 188.75,54.33 189.15,54.33 189.54,54.33 189.94,54.33 190.33,54.32 190.73,54.32 191.12,54.31 191.52,54.3 191.91,54.3 192.31,54.3 192.7,54.3 193.1,54.3 193.49,54.3 193.89,54.29 194.28,54.29 194.68,54.28 195.07,54.28 195.46,54.27 195.86,54.28 196.25,54.28 196.65,54.28 197.04,54.28 197.44,54.28 197.83,54.27 198.23,54.27 198.62,54.27 199.02,54.27 199.41,54.27 199.81,54.27 200.2,54.27 200.6,54.28 200.99,54.27 201.39,54.27 201.78,54.27 202.18,54.27 202.57,54.27 202.97,54.26 203.36,54.26 203.76,54.25 204.15,54.25 204.54,54.25 204.94,54.25 205.33,54.25 205.73,54.26 206.12,54.26 206.52,54.25 206.91,54.24 207.31,54.24 207.7,54.23 208.1,54.23 208.49,54.24 208.89,54.24 209.28,54.24 209.68,54.24 210.07,54.23 210.47,54.23 210.86,54.23 211.26,54.23 211.65,54.23 212.05,54.22 212.44,54.22 212.84,54.21 213.23,54.21 213.62,54.21 214.02,54.21 214.41,54.22 214.81,54.22 215.2,54.22 215.6,54.21 215.99,54.21 216.39,54.21 216.78,54.21 217.18,54.2 217.57,54.2 217.97,54.2 218.36,54.2 218.76,54.19 219.15,54.19 219.55,54.19 219.94,54.2 220.34,54.2 220.73,54.2 221.13,54.2 221.52,54.2 221.92,54.2 222.31,54.19 222.7,54.19 223.1,54.19 223.49,54.18 223.89,54.18 224.28,54.18 224.68,54.18 225.07,54.18 225.47,54.18 225.86,54.17 226.26,54.17 226.65,54.17 227.05,54.17 227.44,54.17 227.84,54.17 228.23,54.18 228.63,54.18 229.02,54.18 229.42,54.18 229.81,54.18 230.21,54.17 230.6,54.16 231,54.16 231.39,54.16 231.78,54.16 232.18,54.16 232.57,54.16 232.97,54.16 233.36,54.16 233.76,54.16 234.15,54.16 234.55,54.16 234.94,54.16 235.34,54.16 235.73,54.16 236.13,54.16 236.52,54.16 236.92,54.16 237.31,54.15 237.71,54.15 238.1,54.16 238.5,54.16 238.89,54.15 239.29,54.15 239.68,54.15 240.08,54.15 240.47,54.15 240.87,54.14 241.26,54.14 241.65,54.14 242.05,54.14 242.44,54.14 242.84,54.15 243.23,54.15 243.63,54.15 244.02,54.14 244.42,54.14 244.81,54.14 245.21,54.14 245.6,54.14 246,54.14 246.39,54.14 246.79,54.14 247.18,54.14 247.58,54.14 247.97,54.14 248.37,54.14 248.76,54.14 249.16,54.14 249.55,54.13 249.95,54.13 250.34,54.12 250.73,54.12 251.13,54.12 251.52,54.12 251.92,54.12 252.31,54.12 252.71,54.12 253.1,54.13 253.5,54.13 253.89,54.13 254.29,54.13 254.68,54.12 255.08,54.11 255.47,54.11 255.87,54.11 256.26,54.11 256.66,54.11 257.05,54.11 257.45,54.11 257.84,54.11 258.24,54.11 258.63,54.11 259.03,54.1 259.42,54.08 259.81,54.05 260.21,54.01 260.6,53.98 261,53.97 261.39,53.97" stroke-dasharray="none" stroke="rgb(31,120,180)" stroke-width="0.75" opacity="1" stroke-opacity="1" fill="none"/>
          </g>
          <g id="Fig:densplot_01.xyplot.lines.group.10.panel.1.1.1">
            <polyline id="Fig:densplot_01.xyplot.lines.group.10.panel.1.1.1.1" points="59.79,53.97 60.19,54.04 60.58,55.15 60.97,63 61.37,91.44 61.76,145.77 62.15,200.05 62.55,222.22 62.94,211.77 63.34,189.53 63.73,169.46 64.12,154.44 64.52,143.3 64.91,134.14 65.3,126.31 65.7,119.88 66.09,114.54 66.49,109.81 66.88,105.33 67.27,101.18 67.67,97.57 68.06,94.49 68.45,91.76 68.85,89.18 69.24,86.78 69.64,84.75 70.03,83.02 70.42,81.33 70.82,79.63 71.21,78.02 71.6,76.66 72,75.56 72.39,74.5 72.79,73.38 73.18,72.38 73.57,71.59 73.97,70.9 74.36,70.13 74.76,69.3 75.15,68.54 75.54,67.88 75.94,67.3 76.33,66.74 76.72,66.15 77.12,65.64 77.51,65.23 77.91,64.79 78.3,64.29 78.69,63.85 79.09,63.54 79.48,63.27 79.87,62.96 80.27,62.61 80.66,62.3 81.06,62.02 81.45,61.8 81.84,61.55 82.24,61.29 82.63,61.07 83.02,60.87 83.42,60.69 83.81,60.5 84.21,60.3 84.6,60.1 84.99,59.94 85.39,59.8 85.78,59.63 86.17,59.44 86.57,59.27 86.96,59.15 87.36,59.03 87.75,58.87 88.14,58.73 88.54,58.64 88.93,58.55 89.33,58.45 89.72,58.32 90.11,58.18 90.51,58.09 90.9,58.02 91.29,57.94 91.69,57.85 92.08,57.76 92.48,57.67 92.87,57.61 93.26,57.56 93.66,57.48 94.05,57.4 94.44,57.32 94.84,57.23 95.23,57.13 95.63,57.04 96.02,56.99 96.41,56.96 96.81,56.93 97.2,56.89 97.59,56.85 97.99,56.81 98.38,56.74 98.78,56.66 99.17,56.61 99.56,56.58 99.96,56.55 100.35,56.5 100.74,56.45 101.14,56.4 101.53,56.35 101.93,56.31 102.32,56.28 102.71,56.23 103.11,56.17 103.5,56.12 103.89,56.11 104.29,56.1 104.68,56.06 105.08,56.02 105.47,55.98 105.86,55.95 106.26,55.93 106.65,55.91 107.05,55.87 107.44,55.83 107.83,55.79 108.23,55.77 108.62,55.76 109.01,55.74 109.41,55.73 109.8,55.7 110.2,55.67 110.59,55.63 110.98,55.62 111.38,55.61 111.77,55.59 112.16,55.56 112.56,55.52 112.95,55.49 113.35,55.49 113.74,55.49 114.13,55.48 114.53,55.46 114.92,55.43 115.31,55.4 115.71,55.37 116.1,55.33 116.5,55.31 116.89,55.29 117.28,55.28 117.68,55.28 118.07,55.27 118.46,55.25 118.86,55.24 119.25,55.23 119.65,55.21 120.04,55.2 120.43,55.18 120.83,55.17 121.22,55.16 121.61,55.15 122.01,55.14 122.4,55.11 122.8,55.08 123.19,55.05 123.58,55.03 123.98,55.02 124.37,55.01 124.77,55 125.16,55.01 125.55,55.01 125.95,55 126.34,54.98 126.73,54.97 127.13,54.98 127.52,54.99 127.92,54.97 128.31,54.94 128.7,54.93 129.1,54.91 129.49,54.88 129.88,54.87 130.28,54.87 130.67,54.86 131.07,54.86 131.46,54.85 131.85,54.83 132.25,54.79 132.64,54.77 133.03,54.76 133.43,54.77 133.82,54.77 134.22,54.77 134.61,54.78 135,54.77 135.4,54.74 135.79,54.71 136.18,54.71 136.58,54.71 136.97,54.71 137.37,54.7 137.76,54.7 138.15,54.69 138.55,54.69 138.94,54.68 139.33,54.68 139.73,54.67 140.12,54.65 140.52,54.65 140.91,54.65 141.3,54.65 141.7,54.64 142.09,54.62 142.49,54.62 142.88,54.61 143.27,54.62 143.67,54.62 144.06,54.62 144.45,54.61 144.85,54.59 145.24,54.58 145.64,54.57 146.03,54.58 146.42,54.58 146.82,54.58 147.21,54.57 147.6,54.56 148,54.55 148.39,54.55 148.79,54.56 149.18,54.56 149.57,54.55 149.97,54.54 150.36,54.53 150.75,54.53 151.15,54.53 151.54,54.53 151.94,54.52 152.33,54.52 152.72,54.5 153.12,54.49 153.51,54.48 153.9,54.47 154.3,54.47 154.69,54.47 155.09,54.47 155.48,54.47 155.87,54.46 156.27,54.46 156.66,54.46 157.05,54.46 157.45,54.46 157.84,54.45 158.24,54.44 158.63,54.43 159.02,54.42 159.42,54.43 159.81,54.44 160.21,54.44 160.6,54.43 160.99,54.42 161.39,54.41 161.78,54.41 162.17,54.41 162.57,54.4 162.96,54.4 163.36,54.4 163.75,54.4 164.14,54.4 164.54,54.4 164.93,54.4 165.32,54.39 165.72,54.38 166.11,54.38 166.51,54.38 166.9,54.39 167.29,54.38 167.69,54.36 168.08,54.35 168.47,54.35 168.87,54.35 169.26,54.35 169.66,54.34 170.05,54.34 170.44,54.33 170.84,54.32 171.23,54.32 171.62,54.32 172.02,54.33 172.41,54.33 172.81,54.33 173.2,54.33 173.59,54.32 173.99,54.32 174.38,54.31 174.77,54.31 175.17,54.3 175.56,54.3 175.96,54.29 176.35,54.29 176.74,54.29 177.14,54.29 177.53,54.29 177.93,54.29 178.32,54.29 178.71,54.3 179.11,54.3 179.5,54.29 179.89,54.29 180.29,54.28 180.68,54.28 181.08,54.27 181.47,54.27 181.86,54.28 182.26,54.28 182.65,54.28 183.04,54.29 183.44,54.29 183.83,54.29 184.23,54.28 184.62,54.27 185.01,54.27 185.41,54.27 185.8,54.26 186.19,54.27 186.59,54.26 186.98,54.25 187.38,54.25 187.77,54.25 188.16,54.25 188.56,54.25 188.95,54.25 189.34,54.25 189.74,54.25 190.13,54.24 190.53,54.23 190.92,54.23 191.31,54.23 191.71,54.24 192.1,54.24 192.49,54.24 192.89,54.23 193.28,54.23 193.68,54.23 194.07,54.23 194.46,54.23 194.86,54.23 195.25,54.23 195.65,54.22 196.04,54.21 196.43,54.21 196.83,54.22 197.22,54.22 197.61,54.22 198.01,54.21 198.4,54.21 198.8,54.2 199.19,54.21 199.58,54.21 199.98,54.21 200.37,54.21 200.76,54.2 201.16,54.2 201.55,54.19 201.95,54.19 202.34,54.18 202.73,54.19 203.13,54.2 203.52,54.2 203.91,54.2 204.31,54.19 204.7,54.18 205.1,54.18 205.49,54.18 205.88,54.18 206.28,54.18 206.67,54.17 207.06,54.17 207.46,54.17 207.85,54.17 208.25,54.18 208.64,54.18 209.03,54.17 209.43,54.16 209.82,54.16 210.21,54.15 210.61,54.16 211,54.17 211.4,54.17 211.79,54.16 212.18,54.16 212.58,54.15 212.97,54.15 213.37,54.15 213.76,54.15 214.15,54.16 214.55,54.16 214.94,54.16 215.33,54.16 215.73,54.15 216.12,54.15 216.52,54.15 216.91,54.15 217.3,54.16 217.7,54.16 218.09,54.16 218.48,54.16 218.88,54.16 219.27,54.16 219.67,54.15 220.06,54.15 220.45,54.15 220.85,54.14 221.24,54.14 221.63,54.13 222.03,54.13 222.42,54.12 222.82,54.12 223.21,54.13 223.6,54.14 224,54.14 224.39,54.14 224.78,54.13 225.18,54.13 225.57,54.13 225.97,54.13 226.36,54.13 226.75,54.12 227.15,54.12 227.54,54.13 227.93,54.13 228.33,54.13 228.72,54.12 229.12,54.12 229.51,54.12 229.9,54.12 230.3,54.13 230.69,54.13 231.09,54.13 231.48,54.13 231.87,54.13 232.27,54.12 232.66,54.11 233.05,54.11 233.45,54.11 233.84,54.11 234.24,54.11 234.63,54.11 235.02,54.11 235.42,54.12 235.81,54.11 236.2,54.11 236.6,54.11 236.99,54.11 237.39,54.11 237.78,54.11 238.17,54.11 238.57,54.11 238.96,54.11 239.35,54.11 239.75,54.1 240.14,54.11 240.54,54.11 240.93,54.11 241.32,54.11 241.72,54.1 242.11,54.11 242.5,54.11 242.9,54.1 243.29,54.1 243.69,54.1 244.08,54.1 244.47,54.1 244.87,54.11 245.26,54.1 245.65,54.1 246.05,54.09 246.44,54.09 246.84,54.09 247.23,54.09 247.62,54.09 248.02,54.09 248.41,54.09 248.81,54.1 249.2,54.09 249.59,54.08 249.99,54.08 250.38,54.08 250.77,54.08 251.17,54.08 251.56,54.09 251.96,54.09 252.35,54.09 252.74,54.09 253.14,54.09 253.53,54.08 253.92,54.08 254.32,54.08 254.71,54.08 255.11,54.08 255.5,54.08 255.89,54.08 256.29,54.08 256.68,54.08 257.07,54.08 257.47,54.08 257.86,54.08 258.26,54.08 258.65,54.07 259.04,54.06 259.44,54.05 259.83,54.02 260.22,53.99 260.62,53.97 261.01,53.97" stroke-dasharray="none" stroke="rgb(31,120,180)" stroke-width="0.75" opacity="1" stroke-opacity="1" fill="none"/>
          </g>
          <g id="Fig:densplot_01.xyplot.lines.group.11.panel.1.1.1">
            <polyline id="Fig:densplot_01.xyplot.lines.group.11.panel.1.1.1.1" points="59.6,53.97 60,54.09 60.39,55.12 60.79,60.58 61.18,78.02 61.57,111.85 61.97,151.75 62.36,178.53 62.76,184.14 63.15,175.53 63.55,162.36 63.94,149.76 64.34,139.27 64.73,130.92 65.13,124.13 65.52,118.38 65.92,113.48 66.31,109.34 66.71,105.74 67.1,102.47 67.5,99.49 67.89,96.86 68.29,94.52 68.68,92.3 69.08,90.12 69.47,88.1 69.86,86.31 70.26,84.66 70.65,83.07 71.05,81.6 71.44,80.31 71.84,79.12 72.23,77.96 72.63,76.82 73.02,75.78 73.42,74.85 73.81,73.94 74.21,73.02 74.6,72.17 75,71.43 75.39,70.74 75.79,70.02 76.18,69.3 76.58,68.68 76.97,68.18 77.37,67.69 77.76,67.14 78.15,66.63 78.55,66.24 78.94,65.91 79.34,65.53 79.73,65.12 80.13,64.76 80.52,64.41 80.92,64.04 81.31,63.67 81.71,63.38 82.1,63.13 82.5,62.87 82.89,62.56 83.29,62.25 83.68,61.98 84.08,61.75 84.47,61.53 84.87,61.31 85.26,61.12 85.66,60.95 86.05,60.76 86.45,60.56 86.84,60.38 87.23,60.24 87.63,60.1 88.02,59.95 88.42,59.79 88.81,59.65 89.21,59.51 89.6,59.35 90,59.2 90.39,59.1 90.79,59.01 91.18,58.92 91.58,58.81 91.97,58.69 92.37,58.58 92.76,58.49 93.16,58.4 93.55,58.31 93.95,58.21 94.34,58.12 94.74,58.02 95.13,57.94 95.52,57.86 95.92,57.79 96.31,57.72 96.71,57.64 97.1,57.56 97.5,57.5 97.89,57.44 98.29,57.38 98.68,57.32 99.08,57.26 99.47,57.2 99.87,57.14 100.26,57.08 100.66,57.04 101.05,56.99 101.45,56.94 101.84,56.87 102.24,56.81 102.63,56.76 103.03,56.7 103.42,56.64 103.81,56.6 104.21,56.58 104.6,56.57 105,56.54 105.39,56.49 105.79,56.43 106.18,56.38 106.58,56.35 106.97,56.31 107.37,56.27 107.76,56.23 108.16,56.21 108.55,56.19 108.95,56.15 109.34,56.1 109.74,56.06 110.13,56.03 110.53,56 110.92,55.97 111.32,55.95 111.71,55.92 112.11,55.89 112.5,55.85 112.89,55.82 113.29,55.81 113.68,55.79 114.08,55.76 114.47,55.73 114.87,55.71 115.26,55.7 115.66,55.69 116.05,55.65 116.45,55.61 116.84,55.58 117.24,55.56 117.63,55.55 118.03,55.54 118.42,55.54 118.82,55.54 119.21,55.52 119.61,55.49 120,55.46 120.4,55.44 120.79,55.42 121.18,55.4 121.58,55.38 121.97,55.37 122.37,55.35 122.76,55.33 123.16,55.31 123.55,55.3 123.95,55.29 124.34,55.28 124.74,55.26 125.13,55.25 125.53,55.24 125.92,55.22 126.32,55.2 126.71,55.18 127.11,55.16 127.5,55.14 127.9,55.13 128.29,55.12 128.69,55.11 129.08,55.11 129.47,55.09 129.87,55.07 130.26,55.06 130.66,55.05 131.05,55.04 131.45,55.03 131.84,55.02 132.24,55.01 132.63,55 133.03,54.98 133.42,54.97 133.82,54.96 134.21,54.96 134.61,54.95 135,54.94 135.4,54.93 135.79,54.93 136.19,54.92 136.58,54.92 136.98,54.91 137.37,54.9 137.76,54.88 138.16,54.87 138.55,54.87 138.95,54.86 139.34,54.85 139.74,54.84 140.13,54.83 140.53,54.82 140.92,54.81 141.32,54.8 141.71,54.79 142.11,54.77 142.5,54.75 142.9,54.74 143.29,54.75 143.69,54.75 144.08,54.76 144.48,54.76 144.87,54.76 145.27,54.75 145.66,54.73 146.06,54.72 146.45,54.7 146.84,54.69 147.24,54.69 147.63,54.68 148.03,54.68 148.42,54.67 148.82,54.66 149.21,54.66 149.61,54.66 150,54.65 150.4,54.65 150.79,54.66 151.19,54.67 151.58,54.66 151.98,54.64 152.37,54.62 152.77,54.61 153.16,54.6 153.56,54.6 153.95,54.58 154.35,54.57 154.74,54.57 155.13,54.57 155.53,54.57 155.92,54.55 156.32,54.55 156.71,54.54 157.11,54.54 157.5,54.54 157.9,54.54 158.29,54.54 158.69,54.55 159.08,54.55 159.48,54.54 159.87,54.54 160.27,54.53 160.66,54.53 161.06,54.52 161.45,54.5 161.85,54.49 162.24,54.48 162.64,54.49 163.03,54.5 163.42,54.51 163.82,54.5 164.21,54.48 164.61,54.47 165,54.48 165.4,54.48 165.79,54.48 166.19,54.47 166.58,54.47 166.98,54.46 167.37,54.46 167.77,54.45 168.16,54.45 168.56,54.45 168.95,54.45 169.35,54.44 169.74,54.43 170.14,54.44 170.53,54.44 170.93,54.45 171.32,54.44 171.72,54.43 172.11,54.42 172.5,54.41 172.9,54.41 173.29,54.41 173.69,54.4 174.08,54.4 174.48,54.39 174.87,54.39 175.27,54.39 175.66,54.41 176.06,54.41 176.45,54.4 176.85,54.38 177.24,54.38 177.64,54.38 178.03,54.38 178.43,54.37 178.82,54.36 179.22,54.35 179.61,54.36 180.01,54.36 180.4,54.35 180.79,54.34 181.19,54.33 181.58,54.34 181.98,54.34 182.37,54.34 182.77,54.34 183.16,54.34 183.56,54.34 183.95,54.33 184.35,54.34 184.74,54.34 185.14,54.34 185.53,54.34 185.93,54.33 186.32,54.32 186.72,54.31 187.11,54.31 187.51,54.31 187.9,54.3 188.3,54.29 188.69,54.29 189.08,54.29 189.48,54.29 189.87,54.3 190.27,54.3 190.66,54.3 191.06,54.31 191.45,54.31 191.85,54.3 192.24,54.29 192.64,54.29 193.03,54.29 193.43,54.29 193.82,54.29 194.22,54.28 194.61,54.27 195.01,54.26 195.4,54.26 195.8,54.26 196.19,54.26 196.59,54.26 196.98,54.26 197.38,54.26 197.77,54.26 198.16,54.26 198.56,54.26 198.95,54.26 199.35,54.25 199.74,54.23 200.14,54.22 200.53,54.23 200.93,54.24 201.32,54.24 201.72,54.24 202.11,54.23 202.51,54.23 202.9,54.22 203.3,54.22 203.69,54.23 204.09,54.24 204.48,54.24 204.88,54.24 205.27,54.24 205.67,54.23 206.06,54.23 206.45,54.22 206.85,54.22 207.24,54.22 207.64,54.22 208.03,54.21 208.43,54.22 208.82,54.22 209.22,54.22 209.61,54.22 210.01,54.21 210.4,54.21 210.8,54.22 211.19,54.22 211.59,54.21 211.98,54.21 212.38,54.2 212.77,54.2 213.17,54.2 213.56,54.2 213.96,54.2 214.35,54.2 214.74,54.19 215.14,54.19 215.53,54.19 215.93,54.19 216.32,54.19 216.72,54.19 217.11,54.19 217.51,54.2 217.9,54.19 218.3,54.19 218.69,54.18 219.09,54.18 219.48,54.19 219.88,54.2 220.27,54.2 220.67,54.19 221.06,54.18 221.46,54.17 221.85,54.17 222.25,54.17 222.64,54.17 223.04,54.17 223.43,54.17 223.82,54.17 224.22,54.17 224.61,54.17 225.01,54.17 225.4,54.16 225.8,54.16 226.19,54.17 226.59,54.17 226.98,54.17 227.38,54.16 227.77,54.16 228.17,54.16 228.56,54.16 228.96,54.16 229.35,54.15 229.75,54.16 230.14,54.16 230.54,54.16 230.93,54.16 231.33,54.16 231.72,54.17 232.11,54.17 232.51,54.16 232.9,54.16 233.3,54.15 233.69,54.15 234.09,54.15 234.48,54.15 234.88,54.14 235.27,54.14 235.67,54.13 236.06,54.13 236.46,54.14 236.85,54.14 237.25,54.14 237.64,54.14 238.04,54.14 238.43,54.14 238.83,54.14 239.22,54.14 239.62,54.14 240.01,54.14 240.4,54.14 240.8,54.13 241.19,54.13 241.59,54.13 241.98,54.13 242.38,54.13 242.77,54.13 243.17,54.13 243.56,54.13 243.96,54.13 244.35,54.12 244.75,54.12 245.14,54.12 245.54,54.12 245.93,54.13 246.33,54.12 246.72,54.12 247.12,54.12 247.51,54.12 247.91,54.11 248.3,54.11 248.69,54.11 249.09,54.11 249.48,54.11 249.88,54.11 250.27,54.11 250.67,54.11 251.06,54.11 251.46,54.11 251.85,54.1 252.25,54.1 252.64,54.11 253.04,54.11 253.43,54.11 253.83,54.11 254.22,54.12 254.62,54.12 255.01,54.11 255.41,54.11 255.8,54.1 256.2,54.1 256.59,54.1 256.99,54.1 257.38,54.1 257.77,54.1 258.17,54.1 258.56,54.09 258.96,54.08 259.35,54.07 259.75,54.04 260.14,54.01 260.54,53.98 260.93,53.97 261.33,53.97" stroke-dasharray="none" stroke="rgb(31,120,180)" stroke-width="0.75" opacity="1" stroke-opacity="1" fill="none"/>
          </g>
          <g id="Fig:densplot_01.xyplot.lines.group.12.panel.1.1.1">
            <polyline id="Fig:densplot_01.xyplot.lines.group.12.panel.1.1.1.1" points="59.31,53.98 59.71,54.07 60.11,54.57 60.5,56.66 60.9,63.23 61.3,78.41 61.69,103.77 62.09,133.04 62.48,154.96 62.88,162.84 63.28,158.66 63.67,148.81 64.07,138.41 64.46,129.56 64.86,122.48 65.26,116.86 65.65,112.37 66.05,108.66 66.44,105.44 66.84,102.53 67.24,99.91 67.63,97.51 68.03,95.28 68.43,93.2 68.82,91.3 69.22,89.55 69.61,87.89 70.01,86.32 70.41,84.85 70.8,83.48 71.2,82.2 71.59,81.02 71.99,79.93 72.39,78.88 72.78,77.85 73.18,76.87 73.58,75.96 73.97,75.1 74.37,74.25 74.76,73.44 75.16,72.69 75.56,72 75.95,71.34 76.35,70.71 76.74,70.13 77.14,69.57 77.54,69.04 77.93,68.53 78.33,68.05 78.73,67.57 79.12,67.11 79.52,66.7 79.91,66.32 80.31,65.95 80.71,65.59 81.1,65.25 81.5,64.94 81.89,64.64 82.29,64.36 82.69,64.07 83.08,63.79 83.48,63.49 83.87,63.2 84.27,62.93 84.67,62.69 85.06,62.47 85.46,62.26 85.86,62.06 86.25,61.88 86.65,61.71 87.04,61.54 87.44,61.37 87.84,61.2 88.23,61.01 88.63,60.83 89.02,60.66 89.42,60.49 89.82,60.33 90.21,60.17 90.61,60.02 91.01,59.89 91.4,59.77 91.8,59.66 92.19,59.54 92.59,59.43 92.99,59.32 93.38,59.22 93.78,59.12 94.17,59.01 94.57,58.92 94.97,58.83 95.36,58.76 95.76,58.68 96.15,58.59 96.55,58.49 96.95,58.39 97.34,58.3 97.74,58.21 98.14,58.13 98.53,58.04 98.93,57.96 99.32,57.87 99.72,57.8 100.12,57.73 100.51,57.67 100.91,57.6 101.3,57.53 101.7,57.46 102.1,57.41 102.49,57.36 102.89,57.31 103.29,57.28 103.68,57.24 104.08,57.21 104.47,57.17 104.87,57.12 105.27,57.07 105.66,57 106.06,56.95 106.45,56.91 106.85,56.86 107.25,56.81 107.64,56.76 108.04,56.71 108.44,56.67 108.83,56.64 109.23,56.6 109.62,56.56 110.02,56.53 110.42,56.51 110.81,56.49 111.21,56.46 111.6,56.43 112,56.38 112.4,56.34 112.79,56.3 113.19,56.27 113.58,56.24 113.98,56.22 114.38,56.19 114.77,56.16 115.17,56.13 115.57,56.1 115.96,56.07 116.36,56.04 116.75,56.01 117.15,55.99 117.55,55.96 117.94,55.94 118.34,55.92 118.73,55.91 119.13,55.89 119.53,55.88 119.92,55.86 120.32,55.83 120.72,55.81 121.11,55.77 121.51,55.74 121.9,55.7 122.3,55.69 122.7,55.67 123.09,55.66 123.49,55.65 123.88,55.64 124.28,55.63 124.68,55.62 125.07,55.61 125.47,55.59 125.86,55.56 126.26,55.53 126.66,55.5 127.05,55.47 127.45,55.45 127.85,55.44 128.24,55.43 128.64,55.42 129.03,55.41 129.43,55.4 129.83,55.39 130.22,55.38 130.62,55.35 131.01,55.32 131.41,55.3 131.81,55.29 132.2,55.28 132.6,55.28 133,55.28 133.39,55.28 133.79,55.27 134.18,55.26 134.58,55.24 134.98,55.22 135.37,55.21 135.77,55.2 136.16,55.19 136.56,55.18 136.96,55.17 137.35,55.17 137.75,55.17 138.14,55.16 138.54,55.15 138.94,55.15 139.33,55.14 139.73,55.12 140.13,55.1 140.52,55.08 140.92,55.06 141.31,55.06 141.71,55.05 142.11,55.04 142.5,55.03 142.9,55.01 143.29,54.99 143.69,54.98 144.09,54.97 144.48,54.96 144.88,54.96 145.28,54.96 145.67,54.95 146.07,54.94 146.46,54.93 146.86,54.92 147.26,54.91 147.65,54.9 148.05,54.89 148.44,54.88 148.84,54.87 149.24,54.86 149.63,54.87 150.03,54.87 150.43,54.88 150.82,54.88 151.22,54.87 151.61,54.86 152.01,54.85 152.41,54.84 152.8,54.83 153.2,54.82 153.59,54.81 153.99,54.8 154.39,54.8 154.78,54.79 155.18,54.78 155.57,54.77 155.97,54.77 156.37,54.76 156.76,54.76 157.16,54.76 157.56,54.75 157.95,54.75 158.35,54.74 158.74,54.74 159.14,54.74 159.54,54.74 159.93,54.72 160.33,54.71 160.72,54.69 161.12,54.68 161.52,54.68 161.91,54.68 162.31,54.69 162.71,54.68 163.1,54.67 163.5,54.67 163.89,54.66 164.29,54.65 164.69,54.65 165.08,54.64 165.48,54.64 165.87,54.64 166.27,54.63 166.67,54.63 167.06,54.62 167.46,54.61 167.85,54.61 168.25,54.61 168.65,54.61 169.04,54.61 169.44,54.6 169.84,54.59 170.23,54.58 170.63,54.58 171.02,54.58 171.42,54.58 171.82,54.58 172.21,54.58 172.61,54.57 173,54.57 173.4,54.56 173.8,54.56 174.19,54.55 174.59,54.55 174.99,54.55 175.38,54.55 175.78,54.54 176.17,54.53 176.57,54.52 176.97,54.52 177.36,54.52 177.76,54.52 178.15,54.52 178.55,54.51 178.95,54.51 179.34,54.51 179.74,54.5 180.13,54.5 180.53,54.49 180.93,54.49 181.32,54.49 181.72,54.49 182.12,54.49 182.51,54.49 182.91,54.48 183.3,54.47 183.7,54.47 184.1,54.46 184.49,54.46 184.89,54.45 185.28,54.45 185.68,54.44 186.08,54.44 186.47,54.44 186.87,54.43 187.27,54.43 187.66,54.43 188.06,54.43 188.45,54.43 188.85,54.43 189.25,54.43 189.64,54.43 190.04,54.43 190.43,54.42 190.83,54.42 191.23,54.42 191.62,54.42 192.02,54.41 192.42,54.41 192.81,54.4 193.21,54.39 193.6,54.39 194,54.39 194.4,54.39 194.79,54.4 195.19,54.39 195.58,54.39 195.98,54.38 196.38,54.38 196.77,54.38 197.17,54.39 197.56,54.4 197.96,54.4 198.36,54.39 198.75,54.39 199.15,54.38 199.55,54.37 199.94,54.36 200.34,54.35 200.73,54.34 201.13,54.33 201.53,54.33 201.92,54.34 202.32,54.34 202.71,54.35 203.11,54.35 203.51,54.35 203.9,54.35 204.3,54.35 204.7,54.34 205.09,54.34 205.49,54.33 205.88,54.33 206.28,54.32 206.68,54.32 207.07,54.32 207.47,54.32 207.86,54.32 208.26,54.32 208.66,54.31 209.05,54.31 209.45,54.31 209.84,54.31 210.24,54.31 210.64,54.31 211.03,54.31 211.43,54.31 211.83,54.31 212.22,54.3 212.62,54.29 213.01,54.29 213.41,54.29 213.81,54.3 214.2,54.3 214.6,54.31 214.99,54.31 215.39,54.3 215.79,54.3 216.18,54.29 216.58,54.29 216.98,54.29 217.37,54.28 217.77,54.27 218.16,54.27 218.56,54.26 218.96,54.26 219.35,54.26 219.75,54.26 220.14,54.26 220.54,54.26 220.94,54.26 221.33,54.26 221.73,54.26 222.13,54.26 222.52,54.26 222.92,54.26 223.31,54.26 223.71,54.26 224.11,54.26 224.5,54.26 224.9,54.26 225.29,54.26 225.69,54.26 226.09,54.25 226.48,54.25 226.88,54.25 227.27,54.25 227.67,54.25 228.07,54.25 228.46,54.25 228.86,54.25 229.26,54.25 229.65,54.25 230.05,54.25 230.44,54.24 230.84,54.23 231.24,54.23 231.63,54.23 232.03,54.23 232.42,54.23 232.82,54.23 233.22,54.23 233.61,54.24 234.01,54.24 234.41,54.24 234.8,54.24 235.2,54.23 235.59,54.23 235.99,54.23 236.39,54.23 236.78,54.23 237.18,54.23 237.57,54.22 237.97,54.22 238.37,54.22 238.76,54.21 239.16,54.21 239.55,54.21 239.95,54.21 240.35,54.21 240.74,54.21 241.14,54.21 241.54,54.2 241.93,54.2 242.33,54.2 242.72,54.2 243.12,54.21 243.52,54.21 243.91,54.21 244.31,54.21 244.7,54.2 245.1,54.2 245.5,54.2 245.89,54.19 246.29,54.19 246.69,54.19 247.08,54.18 247.48,54.18 247.87,54.18 248.27,54.18 248.67,54.18 249.06,54.18 249.46,54.18 249.85,54.18 250.25,54.18 250.65,54.18 251.04,54.18 251.44,54.18 251.83,54.18 252.23,54.18 252.63,54.18 253.02,54.18 253.42,54.17 253.82,54.17 254.21,54.17 254.61,54.18 255,54.18 255.4,54.18 255.8,54.18 256.19,54.18 256.59,54.17 256.98,54.17 257.38,54.17 257.78,54.17 258.17,54.17 258.57,54.16 258.97,54.15 259.36,54.13 259.76,54.09 260.15,54.04 260.55,54 260.95,53.98 261.34,53.97 261.74,53.97" stroke-dasharray="none" stroke="rgb(31,120,180)" stroke-width="0.75" opacity="1" stroke-opacity="1" fill="none"/>
          </g>
        </g>
        <g id="Fig:densplot_01.panel.1.1.off.vp.2">
          <g id="Fig:densplot_01.border.panel.1.1.1">
            <rect id="Fig:densplot_01.border.panel.1.1.1.1" x="44.8" y="42.19" width="231.2" height="191.81" transform="" stroke="rgb(0,0,0)" stroke-dasharray="none" stroke-width="0.75" opacity="1" fill="none" stroke-opacity="1" fill-opacity="0"/>
          </g>
        </g>
        <g id="Fig:densplot_01..1"/>
      </g>
    </g>
  </g>
</svg>